<?xml version="1.0" encoding="UTF-8"?>
<svg version="1.1" xmlns="http://www.w3.org/2000/svg" width="866" height="303">
<path d="M0 0 C-9.59515404 2.87326016 -19.19161201 5.74211809 -28.78976917 8.60533142 C-33.24632266 9.93491118 -37.70240917 11.26601479 -42.1574707 12.60058594 C-46.45521707 13.88797055 -50.75413428 15.17137176 -55.05389977 16.45199585 C-56.69580282 16.94177971 -58.33727567 17.43300811 -59.97831154 17.9256897 C-62.27324421 18.61442181 -64.5696397 19.29804595 -66.86645508 19.98046875 C-67.5476239 20.186185 -68.22879272 20.39190125 -68.93060303 20.60385132 C-71.73775885 21.43291997 -74.0534841 22 -77 22 C-77.185625 22.928125 -77.185625 22.928125 -77.375 23.875 C-78 26 -78 26 -80 28 C-83.693507 28.20146402 -86.47940432 28.17353189 -90 27 C-92.52708122 27.61189981 -94.9365809 28.29643704 -97.40625 29.08984375 C-98.12735962 29.31321915 -98.84846924 29.53659454 -99.59143066 29.76673889 C-101.89695092 30.48209195 -104.19859278 31.20903328 -106.5 31.9375 C-108.80184764 32.66082115 -111.10442 33.38159328 -113.40856934 34.09754944 C-114.84240021 34.54360412 -116.27483657 34.99417166 -117.70568848 35.44969177 C-120.59056952 36.35151845 -122.95685272 37 -126 37 C-126.226875 37.928125 -126.45375 38.85625 -126.6875 39.8125 C-128 43 -128 43 -130.125 44.875 C-133.83053189 46.32499074 -137.06754258 46.57348337 -141 46 C-141.68441162 45.61368408 -142.36882324 45.22736816 -143.07397461 44.8293457 C-147.45691655 43.58705503 -150.65102666 45.01399234 -154.87890625 46.4296875 C-155.72799057 46.69886993 -156.57707489 46.96805237 -157.45188904 47.24539185 C-160.16057049 48.10674486 -162.86156787 48.9896771 -165.5625 49.875 C-168.26800754 50.74951235 -170.97488155 51.61936698 -173.68382263 52.48318481 C-175.36778279 53.0214466 -177.04958601 53.56651456 -178.72889709 54.11911011 C-179.49326584 54.36581451 -180.25763458 54.61251892 -181.04516602 54.86669922 C-181.71403336 55.08591034 -182.3829007 55.30512146 -183.07203674 55.53097534 C-185 56 -185 56 -189 56 C-189.14695312 56.97839844 -189.14695312 56.97839844 -189.296875 57.9765625 C-190.51400916 65.09050179 -192.09349109 69.80528919 -198.0625 74.3125 C-203.10152555 77.20725936 -207.3160119 77.52103224 -213 77 C-218.24901254 75.3378127 -221.34810075 73.0945537 -225 69 C-232.82620556 71.0702926 -240.55919587 73.36816921 -248.27734375 75.80859375 C-250.00492668 76.35250763 -250.00492668 76.35250763 -251.76741028 76.90740967 C-255.49166223 78.08131261 -259.21470285 79.25899214 -262.9375 80.4375 C-264.22943942 80.84595496 -265.52139099 81.25437147 -266.81335449 81.66275024 C-285.34955647 87.52408271 -303.8402241 93.50432318 -322.25747681 99.7298584 C-328.12657912 101.71191548 -334.00553896 103.66348066 -339.88671875 105.609375 C-371.00221524 115.90948923 -402.00577611 126.37834256 -432.5625 138.25 C-433.39624146 138.57257782 -434.22998291 138.89515564 -435.08898926 139.22750854 C-444.4033837 142.84092297 -453.61719703 146.63612614 -462.73828125 150.71484375 C-463.55325577 151.0779364 -464.36823029 151.44102905 -465.207901 151.81512451 C-477.24035753 156.7573774 -477.24035753 156.7573774 -486.3359375 165.23046875 C-486.66464844 166.10638672 -486.66464844 166.10638672 -487 167 C-485.54480325 167.34677029 -484.08553194 167.676436 -482.625 168 C-481.81289063 168.185625 -481.00078125 168.37125 -480.1640625 168.5625 C-471.03230015 169.82516344 -461.75484517 168.71567903 -452.625 167.875 C-451.91761688 167.80998291 -451.21023376 167.74496582 -450.48141479 167.67797852 C-424.39238489 165.23990574 -398.48708738 161.46653934 -372.65234375 157.12890625 C-371.90370623 157.00333218 -371.1550687 156.8777581 -370.38374519 156.74837875 C-362.84427436 155.48245095 -355.30690347 154.20529352 -347.77443027 152.89833164 C-344.94706972 152.40889673 -342.11870028 151.92546891 -339.29014778 151.442976 C-337.32311917 151.10485336 -335.35763384 150.75779146 -333.39219666 150.41053772 C-331.62121361 150.10882912 -331.62121361 150.10882912 -329.81445312 149.80102539 C-328.78356567 149.62148819 -327.75267822 149.44195099 -326.69055176 149.25697327 C-324.11675765 149.01115147 -322.4292435 149.18352541 -320 150 C-334.78931961 154.12777737 -349.74559768 157.60113165 -364.6875 161.125 C-365.4102071 161.29554146 -366.1329142 161.46608292 -366.87752151 161.6417923 C-424.2484243 175.16860137 -481.93206849 187.83077752 -540 198 C-541.43463593 198.25206207 -541.43463593 198.25206207 -542.89825439 198.50921631 C-604.15774445 209.24081522 -604.15774445 209.24081522 -634.1875 209.4375 C-635.36940918 209.44773193 -636.55131836 209.45796387 -637.76904297 209.46850586 C-644.21028872 209.40110515 -649.13411978 208.70016709 -655 206 C-655.3419271 202.84955681 -655.38029357 201.47557966 -653.36303711 198.95288086 C-648.04647849 194.44942282 -642.76708983 190.73240643 -636.5625 187.5625 C-635.11097534 186.81734131 -635.11097534 186.81734131 -633.63012695 186.05712891 C-551.70963638 145.29801801 -459.07578658 121.73193236 -272.875 68.625 C-271.70979261 68.30531879 -271.70979261 68.30531879 -270.52104568 67.97917938 C-266.08560964 66.76258456 -261.64922334 65.54956456 -257.21129417 64.34209442 C-255.26781017 63.81305073 -253.32484843 63.2820896 -251.38191223 62.7510376 C-243.62621093 60.65016179 -235.84251852 58.74905236 -228 57 C-228.02054443 56.05979004 -228.04108887 55.11958008 -228.06225586 54.15087891 C-227.96039974 48.99576108 -225.42796019 45.7095175 -222 42 C-217.56791397 38.93916711 -212.56752365 37.2541386 -207.12109375 37.5390625 C-201.51788103 38.75670357 -196.19472665 41.20791002 -193 46 C-187.44933963 45.41067637 -182.26081063 44.42019923 -176.88671875 42.93359375 C-176.15048782 42.73524429 -175.4142569 42.53689484 -174.65571594 42.33253479 C-172.33157003 41.7059207 -170.00940289 41.07237079 -167.6875 40.4375 C-165.34759743 39.79965098 -163.00730377 39.16342543 -160.66572571 38.53175354 C-159.21564431 38.14042592 -157.76652855 37.7454979 -156.31852722 37.34654236 C-153.44855978 36.5707675 -150.98874782 36 -148 36 C-147.773125 34.9275 -147.54625 33.855 -147.3125 32.75 C-145.81241314 28.46403753 -144.98684942 27.12066459 -141 25 C-136.74944578 24.33205577 -133.264132 24.32168527 -129.4375 26.375 C-128 28 -128 28 -128 30 C-126.91992676 29.72736328 -125.83985352 29.45472656 -124.72705078 29.17382812 C-120.72829762 28.16510519 -116.72877248 27.15947356 -112.72900391 26.15478516 C-110.99636888 25.71910851 -109.26394576 25.28258826 -107.53173828 24.84521484 C-105.04514609 24.21751756 -102.5578133 23.59283542 -100.0703125 22.96875 C-98.90461227 22.67345398 -98.90461227 22.67345398 -97.71536255 22.37219238 C-92.22774341 21 -92.22774341 21 -90 21 C-89.34 19.35 -88.68 17.7 -88 16 C-81.43938483 14.73834324 -81.43938483 14.73834324 -79.2088623 16.06663513 C-75.81419926 17.50106553 -73.43306716 16.46285428 -69.90820312 15.55883789 C-69.20203354 15.38195938 -68.49586395 15.20508087 -67.76829529 15.02284241 C-65.43584565 14.43551639 -63.10886454 13.82883255 -60.78125 13.22265625 C-59.16024947 12.81234123 -57.53886423 12.40354336 -55.91711426 11.99620056 C-51.64785081 10.92084286 -47.38263509 9.8303018 -43.11846924 8.73492432 C-36.29377717 6.9823397 -29.4656479 5.24374248 -22.63304138 3.52227592 C-20.24669019 2.91724021 -17.86364745 2.30025371 -15.48059082 1.68238831 C-14.01778444 1.31128492 -12.55485934 0.94064913 -11.09179688 0.57055664 C-9.81590698 0.24253555 -8.54001709 -0.08548553 -7.22546387 -0.42344666 C-4.27926543 -0.95008116 -2.74685488 -1.05543263 0 0 Z " fill="#153D72" transform="translate(658,50)"/>
<path d="M0 0 C0.70028572 0.99697906 0.70028572 0.99697906 1.41471863 2.01409912 C2.81804203 4.23590633 2.81804203 4.23590633 5.25654602 4.3291626 C6.13779648 4.24922058 7.01904694 4.16927856 7.92700195 4.08691406 C8.92846756 4.00652893 9.92993317 3.9261438 10.96174622 3.84332275 C12.04300278 3.7351825 13.12425934 3.62704224 14.23828125 3.515625 C15.35180466 3.42118103 16.46532806 3.32673706 17.6125946 3.22943115 C21.18128046 2.92266706 24.74656129 2.5870752 28.3125 2.25 C31.86806479 1.93356507 35.42409844 1.62294396 38.98027039 1.31341553 C41.19446804 1.11851013 43.40821492 0.91839637 45.62141418 0.71246338 C50.4312345 0.27001252 55.16312559 -0.13509371 60 0 C56.87403496 2.08397669 55.50692548 2.38012914 51.87353516 2.80615234 C50.82880035 2.93323578 49.78406555 3.06031921 48.70767212 3.19125366 C47.57953094 3.32149933 46.45138977 3.451745 45.2890625 3.5859375 C42.90619095 3.87972978 40.52338025 4.17401599 38.140625 4.46875 C34.3799591 4.92482658 30.61883284 5.37572395 26.85644531 5.81738281 C23.227886 6.24656725 19.60230711 6.69617375 15.9765625 7.1484375 C14.85246979 7.2746347 13.72837708 7.40083191 12.57022095 7.53085327 C6.80531411 8.26247969 3.34619798 8.88554202 -1 13 C-4.6404233 12.81170224 -7.55232893 12.14922369 -11 11 C-13.04753529 11.08107575 -13.04753529 11.08107575 -15.28442383 11.43725586 C-16.14574417 11.5574559 -17.00706451 11.67765594 -17.89448547 11.80149841 C-18.82262558 11.93790237 -19.75076569 12.07430634 -20.70703125 12.21484375 C-21.66518234 12.34943497 -22.62333344 12.48402618 -23.61051941 12.62269592 C-26.67881565 13.05441764 -29.7457023 13.49526811 -32.8125 13.9375 C-35.86870364 14.37520053 -38.92515449 14.81084091 -41.98234558 15.24159241 C-43.8850645 15.50996278 -45.78720985 15.78244043 -47.68867493 16.05955505 C-52.16724932 16.6939794 -56.46197281 17.16138742 -61 17 C-61.185625 17.763125 -61.37125 18.52625 -61.5625 19.3125 C-63 22 -63 22 -66.25 23.875 C-70.19871265 25.0596138 -72.10313552 25.21235784 -76 24 C-76.56203125 23.47535156 -77.1240625 22.95070313 -77.703125 22.41015625 C-81.02847033 20.36857519 -83.86778176 21.02386791 -87.5625 21.5625 C-88.32393311 21.65966309 -89.08536621 21.75682617 -89.86987305 21.85693359 C-98.55379581 22.99639507 -107.21716325 24.33327758 -115.87133789 25.67797852 C-116.9824292 25.84869873 -118.09352051 26.01941895 -119.23828125 26.1953125 C-120.7238855 26.42758545 -120.7238855 26.42758545 -122.23950195 26.66455078 C-124.85958264 26.98293681 -127.36403889 27.06195185 -130 27 C-130.309375 28.3303125 -130.309375 28.3303125 -130.625 29.6875 C-132.54297245 34.30806999 -135.47829987 36.73914994 -140 39 C-146.86303964 39.76534811 -151.39089573 39.0576499 -157 35 C-157.33 34.34 -157.66 33.68 -158 33 C-167.12129658 33.5603717 -176.05314462 34.65079992 -185.0703125 36.1171875 C-186.4150072 36.33247839 -187.75975048 36.54746601 -189.10453796 36.76217651 C-192.70003179 37.33833474 -196.29416588 37.92255541 -199.88788223 38.50968933 C-202.14123801 38.87765159 -204.3948598 39.24394839 -206.64852905 39.60998535 C-287.30208944 46.76656015 -287.30208944 46.76656015 -360 74 C-360.33 74.99 -360.66 75.98 -361 77 C-349.70396336 81.21208146 -338.02423647 82.24997803 -326.0625 83.0625 C-325.03705078 83.14048828 -324.01160156 83.21847656 -322.95507812 83.29882812 C-298.45207356 85.02358877 -273.82605178 85.19023764 -249.27209473 85.53222656 C-245.60975129 85.58386458 -241.94745685 85.63878192 -238.28515625 85.69335938 C-231.19014705 85.79864137 -224.0950932 85.90052427 -217 86 C-217 86.33 -217 86.66 -217 87 C-246.6429224 89.42306348 -276.30483039 91.34268909 -306 93 C-307.39493683 93.07797821 -307.39493683 93.07797821 -308.8180542 93.15753174 C-321.20881934 93.84678661 -333.60151188 94.46712635 -346 95 C-346.69228699 95.03029297 -347.38457397 95.06058594 -348.09783936 95.09179688 C-369.94323214 96.03734275 -391.80289814 96.12652061 -413.66543198 96.1807785 C-415.83049323 96.18736461 -417.99551064 96.19744935 -420.16055298 96.20855713 C-494.18392911 96.5623244 -494.18392911 96.5623244 -506 87 C-506.828125 85.0234375 -506.828125 85.0234375 -507 83 C-499.31571326 72.66595922 -483.71719552 70.21197777 -472 67 C-470.70594238 66.64252686 -470.70594238 66.64252686 -469.38574219 66.27783203 C-386.31052312 43.6534219 -298.16838176 35.16606162 -185.03621769 22.38700008 C-183.10144845 22.17482923 -181.16683378 21.96125041 -179.23222351 21.74763489 C-176.8748042 21.48764561 -174.51707985 21.23040244 -172.15901184 20.97636414 C-171.12193588 20.8617836 -170.08485992 20.74720306 -169.01635742 20.62915039 C-167.66377083 20.48214439 -167.66377083 20.48214439 -166.28385925 20.33216858 C-163.84335041 20.04577996 -163.84335041 20.04577996 -161 19 C-160.319375 17.6078125 -160.319375 17.6078125 -159.625 16.1875 C-157.45310742 11.92724917 -154.81203152 10.05701839 -150.75 7.6875 C-145.26608385 6.31652096 -140.55192276 7.20993023 -135.5625 9.75 C-132.84356447 12.13735803 -132.18569796 13.66901596 -131 17 C-129.65856934 16.81062866 -129.65856934 16.81062866 -128.29003906 16.61743164 C-118.09521026 15.21349952 -107.89467954 14.17405739 -97.64697266 13.24731445 C-95.61332549 13.06232978 -93.58010229 12.87312894 -91.546875 12.68359375 C-89.76555176 12.52201782 -89.76555176 12.52201782 -87.94824219 12.35717773 C-84.94634594 12.09313432 -84.94634594 12.09313432 -82 11 C-80.9935725 9.33720673 -79.99414593 7.67016516 -79 6 C-76.40063719 3.20809179 -74.99140092 2.99889044 -71.125 2.5 C-66.36445828 2.6604677 -64.22017645 4.61881473 -61 8 C-61 8.66 -61 9.32 -61 10 C-59.77482666 9.87882812 -58.54965332 9.75765625 -57.28735352 9.6328125 C-52.70867671 9.18114446 -48.12945293 8.73524389 -43.55004883 8.29101562 C-41.57431082 8.09855998 -39.59872116 7.90457477 -37.62329102 7.70898438 C-34.77138003 7.4268877 -31.91896741 7.150435 -29.06640625 6.875 C-28.19415909 6.78750488 -27.32191193 6.70000977 -26.42323303 6.60986328 C-20.9217707 6.08549057 -15.52668731 5.92191877 -10 6 C-9.87625 5.195625 -9.7525 4.39125 -9.625 3.5625 C-9.315625 2.2940625 -9.315625 2.2940625 -9 1 C-5.9167365 -0.54163175 -3.39121901 -0.29747535 0 0 Z " fill="#2079BD" transform="translate(521,42)"/>
<path d="M0 0 C3.0625 2.3125 3.0625 2.3125 5 5 C5 5.99 5 6.98 5 8 C9.41517553 8.28387097 13.83165368 8.52123283 18.25 8.75 C19.50425781 8.83121094 20.75851562 8.91242187 22.05078125 8.99609375 C23.25605469 9.05410156 24.46132813 9.11210937 25.703125 9.171875 C26.81333008 9.2347168 27.92353516 9.29755859 29.06738281 9.36230469 C32.70115773 8.91337678 33.66993983 7.72168901 36 5 C38.74017011 4.27214232 41.23154599 4.42134773 44 5 C46.5 6.875 46.5 6.875 48 9 C48 9.66 48 10.32 48 11 C51.97915159 11.02886984 55.95827653 11.04675406 59.9375 11.0625 C61.64196289 11.07506836 61.64196289 11.07506836 63.38085938 11.08789062 C64.46044922 11.09111328 65.54003906 11.09433594 66.65234375 11.09765625 C67.65257568 11.10289307 68.65280762 11.10812988 69.68334961 11.11352539 C71.96207228 11.26181095 71.96207228 11.26181095 73 10 C75.4375 9.8125 75.4375 9.8125 78 10 C78.66 10.66 79.32 11.32 80 12 C82.56586499 12.38504814 85.0513827 12.65691752 87.6328125 12.8515625 C88.38464813 12.91532074 89.13648376 12.97907898 89.91110229 13.04476929 C92.31511849 13.24667232 94.71994045 13.43597278 97.125 13.625 C98.75397488 13.75958859 100.38288241 13.89499504 102.01171875 14.03125 C106.00709254 14.36366568 110.00323414 14.6847817 114 15 C114 15.33 114 15.66 114 16 C102.45 16 90.9 16 79 16 C79 16.66 79 17.32 79 18 C77.00045254 18.04254356 74.99958364 18.04080783 73 18 C72.67 17.67 72.34 17.34 72 17 C66.43647327 16.13669413 60.8759612 15.8176699 55.25 15.625 C53.99703125 15.57601563 52.7440625 15.52703125 51.453125 15.4765625 C47.10830546 16.13516637 45.85872379 17.78143685 43 21 C40 21.625 40 21.625 37 21 C36.39285156 20.17371094 35.78570312 19.34742187 35.16015625 18.49609375 C32.35219686 15.55672481 29.70536597 15.55150183 25.74609375 15.37109375 C23.30979852 15.36711504 20.87333908 15.39018974 18.4375 15.4375 C17.20580078 15.42654297 15.97410156 15.41558594 14.70507812 15.40429688 C8.21128383 15.11070266 8.21128383 15.11070266 2.74243164 17.97290039 C2.1674292 18.64184326 1.59242676 19.31078613 1 20 C-2.18070237 21.59035119 -5.58330451 21.78937448 -9 21 C-9.87797241 20.17623871 -10.75594482 19.35247742 -11.66052246 18.50375366 C-15.11436877 15.56494327 -18.27528953 15.31210001 -22.69726562 15.41650391 C-23.44664902 15.41416748 -24.19603241 15.41183105 -24.96812439 15.40942383 C-27.44820975 15.40780986 -29.92642674 15.44193323 -32.40625 15.4765625 C-34.16751439 15.4833751 -35.92878803 15.48808328 -37.69006348 15.49081421 C-42.35127454 15.5042387 -47.01172607 15.54840966 -51.67266846 15.59838867 C-55.35795035 15.63307518 -59.04314771 15.64672736 -62.72856236 15.65893745 C-81.35315164 15.7207623 -99.97144919 15.98411391 -118.58984375 16.46875 C-119.72720474 16.49797483 -119.72720474 16.49797483 -120.88754272 16.52779007 C-141.27581405 17.06389147 -161.84455551 17.6309337 -182.0625 20.4375 C-182.85857666 20.54755371 -183.65465332 20.65760742 -184.47485352 20.77099609 C-189.8660359 21.61067846 -194.87682788 23.13805918 -200 25 C-195.7934629 28.90547281 -191.84378179 30.3290561 -186.4375 31.8125 C-185.08205078 32.18870483 -185.08205078 32.18870483 -183.69921875 32.57250977 C-158.67085447 39.23704885 -132.85708724 42.98306288 -107.26171875 46.69116211 C-106.31842209 46.83107574 -105.37512543 46.97098938 -104.40324402 47.11514282 C-102.62156674 47.37930396 -100.83879283 47.63619885 -99.05488586 47.88485718 C-97.02526776 48.18872843 -95.0098295 48.58494249 -93 49 C-92.67 49.66 -92.34 50.32 -92 51 C-288.25613967 35.07577109 -288.25613967 35.07577109 -308 18 C-308.875 15.75 -308.875 15.75 -309 14 C-304.17007001 10.30014978 -299.94509779 8.95927817 -294 7.875 C-293.12988281 7.70959717 -292.25976562 7.54419434 -291.36328125 7.3737793 C-268.60926926 3.26158401 -245.12651381 2.99361984 -222.06567383 2.49731445 C-219.33077982 2.43789714 -216.59607243 2.37255284 -213.86132812 2.30664062 C-191.09205802 1.78162613 -168.33225178 1.97069304 -145.5625 2.375 C-143.7510701 2.4066777 -143.7510701 2.4066777 -141.90304565 2.43899536 C-99.57597236 3.19626879 -57.27620045 4.81269367 -15 7 C-14.70222656 6.37609375 -14.40445312 5.7521875 -14.09765625 5.109375 C-11.10929483 -0.6333836 -5.94018488 -1.15209991 0 0 Z " fill="#3ABACD" transform="translate(333,0)"/>
<path d="M0 0 C7.92 0 15.84 0 24 0 C26.24939946 8.99759784 26.24939946 8.99759784 27.03735352 13.55810547 C27.21416153 14.57210419 27.39096954 15.58610291 27.57313538 16.63082886 C27.75653976 17.69882721 27.93994415 18.76682556 28.12890625 19.8671875 C28.32346909 20.98312286 28.51803192 22.09905823 28.7184906 23.24880981 C29.54649527 27.99811571 30.36770769 32.74858899 31.18920898 37.49902344 C31.79156529 40.97635893 32.39761553 44.45303621 33.00390625 47.9296875 C33.18933487 49.00983124 33.37476349 50.08997498 33.56581116 51.20285034 C33.82629494 52.69547897 33.82629494 52.69547897 34.09204102 54.21826172 C34.24367203 55.09570038 34.39530304 55.97313904 34.55152893 56.87716675 C34.91531292 59.04119187 34.91531292 59.04119187 36 61 C36.48243164 60.05495605 36.96486328 59.10991211 37.46191406 58.13623047 C46.41392134 40.61139828 55.37853991 23.11168657 64.95703125 5.91821289 C66.01662779 3.96941841 67.00797735 1.98404531 68 0 C76.58 0 85.16 0 94 0 C92.65505665 7.89602795 91.30766601 15.79162772 89.95639515 23.68657494 C89.3284834 27.35575175 88.70149278 31.02508011 88.0769043 34.69482422 C84.93084649 53.17464865 81.63079981 71.60780133 78 90 C72.39 90 66.78 90 61 90 C62.50233567 76.76363207 64.73720394 63.72748059 67.125 50.625 C67.68365363 47.54350317 68.24107864 44.46179323 68.79660034 41.37973022 C69.13956862 39.47850566 69.48448593 37.57763141 69.83157349 35.67715454 C70.06213943 34.40344498 70.06213943 34.40344498 70.29736328 33.10400391 C70.50149338 31.98392441 70.50149338 31.98392441 70.70974731 30.84121704 C71.05190625 28.98139196 71.05190625 28.98139196 71 27 C70.69932617 27.58152832 70.39865234 28.16305664 70.08886719 28.76220703 C59.41725742 49.37543361 48.31031779 69.73151016 37 90 C33.04 90 29.08 90 25 90 C21.83221174 77.17507083 19.62076125 64.18896676 17.3125 51.1875 C16.89287685 48.83783726 16.47295749 46.48822739 16.05273438 44.13867188 C15.03173818 38.42638682 14.01440884 32.71345834 13 27 C11.60357397 30.95628797 10.57121057 34.78147751 9.85498047 38.91357422 C9.65492401 40.05430389 9.45486755 41.19503357 9.24874878 42.37033081 C9.04033356 43.58616852 8.83191833 44.80200623 8.6171875 46.0546875 C8.39805695 47.31137238 8.17892639 48.56805725 7.95315552 49.86282349 C7.3744763 53.18633471 6.79978821 56.5104852 6.22705078 59.83502197 C5.64040918 63.23434966 5.04849228 66.63275817 4.45703125 70.03125 C3.29984412 76.68666916 2.14840287 83.34305972 1 90 C-4.61 90 -10.22 90 -16 90 C-12.71553822 69.94546277 -9.3177253 49.91250179 -5.7963562 29.89810181 C-5.39026083 27.58994698 -4.98492703 25.28165802 -4.58035278 22.97323608 C-4.00789037 19.70957571 -3.43222164 16.44649831 -2.85546875 13.18359375 C-2.68278473 12.19764221 -2.51010071 11.21169067 -2.33218384 10.19586182 C-2.17124237 9.29003357 -2.0103009 8.38420532 -1.84448242 7.45092773 C-1.70491623 6.66016342 -1.56535004 5.86939911 -1.42155457 5.05467224 C-1 3 -1 3 0 0 Z " fill="#153D72" transform="translate(772,162)"/>
<path d="M0 0 C0.928125 0.4125 1.85625 0.825 2.8125 1.25 C8.24837024 5.59869619 11.16336209 11.06988673 12 18 C12.50931728 26.8947714 11.37924707 35.27257125 9.75 44 C9.54503906 45.18078125 9.34007812 46.3615625 9.12890625 47.578125 C6.4613609 62.2577079 2.8969244 75.44996407 -9.6328125 84.5625 C-20.35084742 91.07114167 -34.34225247 91.45414078 -46.3125 88.875 C-53.28978315 86.902558 -58.64463715 83.66494338 -62.4375 77.375 C-67.70434431 65.9986163 -64.92461781 53.17073468 -62.75 41.3125 C-62.54552246 40.18513428 -62.34104492 39.05776855 -62.13037109 37.89624023 C-59.55090919 24.53782507 -56.3056502 10.91689422 -44.6875 2.5625 C-32.0962626 -4.84534467 -13.4589627 -6.15675953 0 0 Z M-37.77734375 17.8125 C-42.37495858 23.92766496 -43.67439192 30.59868821 -45 38 C-45.27957431 39.40918765 -45.56089667 40.81802936 -45.84375 42.2265625 C-48.92440798 56.02279836 -48.92440798 56.02279836 -46.4375 69.5 C-42.44469002 73.59518972 -38.76482143 74.82921083 -33.125 75.375 C-26.35605971 75.08584139 -19.77072003 72.90702631 -15 68 C-10.90139275 61.9903358 -9.63135851 56.0306052 -8.3125 48.9375 C-8.10044922 47.82656982 -7.88839844 46.71563965 -7.66992188 45.57104492 C-4.22973969 30.40413839 -4.22973969 30.40413839 -8 16 C-10.04056739 13.5343144 -10.86973924 13.04342025 -14 12 C-22.81071357 11.25560453 -31.25457225 11.16070665 -37.77734375 17.8125 Z " fill="#153D72" transform="translate(730,164)"/>
<path d="M0 0 C5.61 0 11.22 0 17 0 C16.27164299 8.62307722 14.89388762 17.10153455 13.4375 25.625 C13.20086676 27.02468803 12.96453647 28.42442732 12.72851562 29.82421875 C12.15583005 33.21674297 11.57906556 36.60855821 11 40 C11.45671082 39.49887695 11.91342163 38.99775391 12.38397217 38.48144531 C17.19003609 33.22953467 22.0678125 28.05217806 26.99121094 22.91015625 C28.82147277 20.99120332 30.61469774 19.05090266 32.40136719 17.08984375 C48.08047629 -0.07834275 48.08047629 -0.07834275 56.79101562 -1.25 C61.65659972 -1.44409593 66.22751525 -0.92494994 71 0 C69.63886987 3.04581486 68.10669904 5.13839026 65.74365234 7.48339844 C65.08311859 8.14378113 64.42258484 8.80416382 63.74203491 9.48455811 C62.67476669 10.53634247 62.67476669 10.53634247 61.5859375 11.609375 C60.85629791 12.33618469 60.12665833 13.06299438 59.37490845 13.81182861 C57.0462612 16.12929198 54.71075174 18.4396995 52.375 20.75 C50.79381347 22.32115444 49.21307875 23.89276371 47.6328125 25.46484375 C43.7604331 29.31518653 39.88239829 33.15976117 36 37 C37.88140768 42.83109258 39.9395224 48.54478073 42.25 54.21875 C42.54938477 54.96153198 42.84876953 55.70431396 43.15722656 56.46960449 C44.102271 58.81410798 45.0506838 61.15722324 46 63.5 C47.25311304 66.59250397 48.50260768 69.68643474 49.75 72.78125 C50.17200684 73.81759583 50.17200684 73.81759583 50.60253906 74.87487793 C52.61861146 79.87811361 54.2857602 84.85728061 56 90 C49.73 90 43.46 90 37 90 C34.86054712 84.7685283 32.72321696 79.53629382 30.59130859 74.30175781 C29.86502114 72.52032254 29.13748604 70.73939542 28.40869141 68.95898438 C27.3629443 66.40366219 26.32165914 63.84656188 25.28125 61.2890625 C24.95314331 60.49005524 24.62503662 59.69104797 24.2869873 58.86782837 C22 53.22774341 22 53.22774341 22 51 C20.06057428 52.65732743 18.13837663 54.32927138 16.234375 56.02734375 C14.8583698 57.24217351 13.45638014 58.42911725 12.015625 59.56640625 C6.06261137 64.64173197 5.20574283 70.51080862 4 78 C3.79632812 79.15757812 3.59265625 80.31515625 3.3828125 81.5078125 C2.89507 84.33404643 2.44379606 87.16653286 2 90 C-3.94 90 -9.88 90 -16 90 C-14.21047459 79.74177391 -12.41989728 69.48373292 -10.62750435 59.22600746 C-9.79512912 54.46214523 -8.96320214 49.69820566 -8.13232422 44.93408203 C-7.32939475 40.3303103 -6.52525561 35.72675131 -5.72030258 31.12333298 C-5.41450423 29.37328885 -5.10913049 27.62317047 -4.80420303 25.8729744 C-3.29772268 17.22776442 -1.77993667 8.59411483 0 0 Z " fill="#153D72" transform="translate(590,162)"/>
<path d="M0 0 C22.11 0 44.22 0 67 0 C66 10 66 10 64 16 C55.75 16 47.5 16 39 16 C38.67 19.63 38.34 23.26 38 27 C37.66519512 29.31333555 37.30014358 31.62268523 36.89257812 33.92431641 C36.67565308 35.16154449 36.45872803 36.39877258 36.23522949 37.67349243 C36.00291626 38.96975555 35.77060303 40.26601868 35.53125 41.6015625 C35.28816475 42.97344968 35.04537225 44.34538875 34.80285645 45.71737671 C34.29812042 48.56683944 33.79016781 51.41570357 33.27978516 54.26416016 C32.62487375 57.92053494 31.97779173 61.57824535 31.33298492 65.23641396 C30.83492803 68.05752588 30.33304039 70.87794548 29.8299408 73.69816208 C29.58957661 75.04801603 29.35036534 76.3980758 29.11231995 77.74834061 C28.78122935 79.62279204 28.44447319 81.49624012 28.10742188 83.36962891 C27.91724487 84.43565338 27.72706787 85.50167786 27.53112793 86.6000061 C27 89 27 89 26 90 C23.13732433 90.07325168 20.299281 90.09238205 17.4375 90.0625 C16.63119141 90.05798828 15.82488281 90.05347656 14.99414062 90.04882812 C12.99606244 90.03700518 10.99802217 90.01906914 9 90 C10.25058635 82.71382285 11.50252378 75.42787912 12.75607777 68.14221191 C13.3384272 64.75735156 13.920351 61.37241931 14.5012207 57.98730469 C16.90634074 43.97275568 19.31926358 29.96476649 22 16 C14.08 16 6.16 16 -2 16 C-1.125 4.5 -1.125 4.5 0 0 Z " fill="#153C71" transform="translate(448,162)"/>
<path d="M0 0 C5.61 0 11.22 0 17 0 C15.5506615 10.54048522 13.83989757 21.00735931 11.99609375 31.484375 C11.70978262 33.11865482 11.42357548 34.75295286 11.13746643 36.38726807 C10.54309014 39.77927641 9.94704662 43.1709865 9.34985352 46.5625 C8.58400505 50.91298755 7.82310179 55.26432421 7.06347561 59.61590195 C6.47632368 62.97563094 5.88627529 66.33484628 5.29536629 69.69391632 C5.01330246 71.29975562 4.73222358 72.90576825 4.45214653 74.51195526 C4.06281143 76.74255956 3.6695083 78.97242817 3.27514648 81.20214844 C3.0524559 82.4700824 2.82976532 83.73801636 2.60032654 85.04437256 C2 88 2 88 1 90 C-4.61 90 -10.22 90 -16 90 C-14.5506615 79.45951478 -12.83989757 68.99264069 -10.99609375 58.515625 C-10.70978262 56.88134518 -10.42357548 55.24704714 -10.13746643 53.61273193 C-9.54309014 50.22072359 -8.94704662 46.8290135 -8.34985352 43.4375 C-7.58400505 39.08701245 -6.82310179 34.73567579 -6.06347561 30.38409805 C-5.47632368 27.02436906 -4.88627529 23.66515372 -4.29536629 20.30608368 C-4.01330246 18.70024438 -3.73222358 17.09423175 -3.45214653 15.48804474 C-3.06281143 13.25744044 -2.6695083 11.02757183 -2.27514648 8.79785156 C-2.0524559 7.5299176 -1.82976532 6.26198364 -1.60032654 4.95562744 C-1 2 -1 2 0 0 Z " fill="#153D71" transform="translate(413,162)"/>
<path d="M0 0 C13.86 0 27.72 0 42 0 C40 14 40 14 39 16 C25.47 16 11.94 16 -2 16 C-1 4 -1 4 0 0 Z " fill="#153C72" transform="translate(519,205)"/>
<path d="M0 0 C1.98 0 3.96 0 6 0 C7.32 5.28 8.64 10.56 10 16 C12.97 10.72 15.94 5.44 19 0 C21.31 0 23.62 0 26 0 C24.68 8.25 23.36 16.5 22 25 C20.35 25 18.7 25 17 25 C17.33 20.71 17.66 16.42 18 12 C15.69 16.29 13.38 20.58 11 25 C9.68 25 8.36 25 7 25 C6.79503906 24.14535156 6.59007812 23.29070312 6.37890625 22.41015625 C6.10949219 21.30542969 5.84007812 20.20070313 5.5625 19.0625 C5.29566406 17.96035156 5.02882813 16.85820312 4.75390625 15.72265625 C4.27004275 13.10578746 4.27004275 13.10578746 3 12 C2.01 16.29 1.02 20.58 0 25 C-1.32 25 -2.64 25 -4 25 C-2.94650498 16.59445466 -1.83088877 8.27795453 0 0 Z M19 9 C20 11 20 11 20 11 Z " fill="#143B70" transform="translate(758,277)"/>
<path d="M0 0 C1.98 0 3.96 0 6 0 C7.92908943 5.23609987 8.98408579 10.53135543 10 16 C10.63808594 14.92878906 11.27617187 13.85757812 11.93359375 12.75390625 C12.76815188 11.35672466 13.60279151 9.95959176 14.4375 8.5625 C14.85837891 7.85544922 15.27925781 7.14839844 15.71289062 6.41992188 C18.88671875 1.11328125 18.88671875 1.11328125 20 0 C21.98 0 23.96 0 26 0 C24.68 8.25 23.36 16.5 22 25 C20.35 25 18.7 25 17 25 C17.66 20.38 18.32 15.76 19 11 C16.36 15.62 13.72 20.24 11 25 C9.68 25 8.36 25 7 25 C6.01 20.71 5.02 16.42 4 12 C3.67 12 3.34 12 3 12 C2.34 15.96 1.68 19.92 1 24 C-0.65 24.33 -2.3 24.66 -4 25 C-2.85111339 16.62779437 -1.5922517 8.30003544 0 0 Z " fill="#143B70" transform="translate(205,277)"/>
<path d="M0 0 C1.98 0 3.96 0 6 0 C6.99 4.62 7.98 9.24 9 14 C9.66 14 10.32 14 11 14 C13.64 9.38 16.28 4.76 19 0 C20.98 0 22.96 0 25 0 C24.02716362 8.4346984 23.06297567 16.7480973 21 25 C19.68 25 18.36 25 17 25 C17.33 20.38 17.66 15.76 18 11 C15.36 15.62 12.72 20.24 10 25 C8.68 25 7.36 25 6 25 C5.01 20.38 4.02 15.76 3 11 C2.01 15.62 1.02 20.24 0 25 C-1.65 25 -3.3 25 -5 25 C-4.36069083 21.01975618 -3.71246675 17.04101621 -3.0625 13.0625 C-2.88009766 11.92619141 -2.69769531 10.78988281 -2.50976562 9.61914062 C-2.33251953 8.53955078 -2.15527344 7.45996094 -1.97265625 6.34765625 C-1.81031494 5.34742432 -1.64797363 4.34719238 -1.48071289 3.31665039 C-1 1 -1 1 0 0 Z " fill="#143B70" transform="translate(168,277)"/>
<path d="M0 0 C2.27057377 -0.05398987 4.54151288 -0.09278742 6.8125 -0.125 C8.07707031 -0.14820313 9.34164062 -0.17140625 10.64453125 -0.1953125 C14 0 14 0 17 2 C17.31810293 6.21486378 16.842541 9.89261264 16 14 C16.12375 15.485 16.12375 15.485 16.25 17 C16 20 16 20 13.97265625 22.66796875 C10.30452345 25.54559724 7.63974813 25.58943409 3.1875 25.3125 C2.49462891 25.28994141 1.80175781 25.26738281 1.08789062 25.24414062 C-0.60901573 25.18562661 -2.30479861 25.0959548 -4 25 C-3.49451662 16.45907394 -1.93265709 8.32622708 0 0 Z M3 5 C2.95936168 6.66617115 2.957279 8.33388095 3 10 C7.0100934 10.17864631 7.0100934 10.17864631 11 10 C11.66 9.34 12.32 8.68 13 8 C12.6814823 5.89179203 12.6814823 5.89179203 12 4 C7.20029258 3.47166284 7.20029258 3.47166284 3 5 Z M2 14 C1.67 16.31 1.34 18.62 1 21 C3.97 21 6.94 21 10 21 C10.66 19.35 11.32 17.7 12 16 C10.23863645 13.81668311 10.23863645 13.81668311 8.0546875 13.8046875 C5.02734375 13.90234375 5.02734375 13.90234375 2 14 Z " fill="#143C71" transform="translate(796,277)"/>
<path d="M0 0 C1.65 0 3.3 0 5 0 C6.98 4.95 8.96 9.9 11 15 C11.99 10.38 12.98 5.76 14 1 C15.65 0.67 17.3 0.34 19 0 C17.85111339 8.37220563 16.5922517 16.69996456 15 25 C13.35 25 11.7 25 10 25 C7.69 19.72 5.38 14.44 3 9 C2.01 14.28 1.02 19.56 0 25 C-1.65 25 -3.3 25 -5 25 C-4.36069083 21.01975618 -3.71246675 17.04101621 -3.0625 13.0625 C-2.88009766 11.92619141 -2.69769531 10.78988281 -2.50976562 9.61914062 C-2.33251953 8.53955078 -2.15527344 7.45996094 -1.97265625 6.34765625 C-1.81031494 5.34742432 -1.64797363 4.34719238 -1.48071289 3.31665039 C-1 1 -1 1 0 0 Z " fill="#143B6F" transform="translate(450,277)"/>
<path d="M0 0 C1.65 0 3.3 0 5 0 C6.98 4.62 8.96 9.24 11 14 C12.17217819 10.48346543 13.26448346 7.1899971 14.125 3.625 C14.41375 2.42875 14.7025 1.2325 15 0 C16.32 0 17.64 0 19 0 C18.24595285 8.44532805 16.62171958 16.68741223 15 25 C13.35 25 11.7 25 10 25 C8.9955866 22.7101766 7.99632388 20.4183401 7 18.125 C6.71382813 17.47402344 6.42765625 16.82304687 6.1328125 16.15234375 C4 11.2265625 4 11.2265625 4 9 C3.34 9 2.68 9 2 9 C1.93941406 9.73605469 1.87882812 10.47210938 1.81640625 11.23046875 C1.69072266 12.69419922 1.69072266 12.69419922 1.5625 14.1875 C1.48128906 15.15042969 1.40007812 16.11335938 1.31640625 17.10546875 C1.02333849 19.78649602 0.57296246 22.3662986 0 25 C-1.32 25 -2.64 25 -4 25 C-3.55046968 16.39691968 -2.13898002 8.34067679 0 0 Z " fill="#143B6E" transform="translate(273,277)"/>
<path d="M0 0 C2.64453125 1.00390625 2.64453125 1.00390625 4.4453125 4.1640625 C4.96910366 5.45696473 5.47241171 6.75831708 5.95703125 8.06640625 C6.22064453 8.72962891 6.48425781 9.39285156 6.75585938 10.07617188 C7.40307857 11.7118713 8.0261742 13.35707905 8.64453125 15.00390625 C9.63453125 10.38390625 10.62453125 5.76390625 11.64453125 1.00390625 C13.29453125 0.67390625 14.94453125 0.34390625 16.64453125 0.00390625 C15.32453125 8.25390625 14.00453125 16.50390625 12.64453125 25.00390625 C10.99453125 25.00390625 9.34453125 25.00390625 7.64453125 25.00390625 C5.33453125 19.72390625 3.02453125 14.44390625 0.64453125 9.00390625 C-0.34546875 14.28390625 -1.33546875 19.56390625 -2.35546875 25.00390625 C-4.00546875 25.00390625 -5.65546875 25.00390625 -7.35546875 25.00390625 C-6.71615958 21.02366243 -6.0679355 17.04492246 -5.41796875 13.06640625 C-5.23556641 11.93009766 -5.05316406 10.79378906 -4.86523438 9.62304688 C-4.68798828 8.54345703 -4.51074219 7.46386719 -4.328125 6.3515625 C-4.16578369 5.35133057 -4.00344238 4.35109863 -3.83618164 3.32055664 C-3.14823813 0.00522096 -3.14823813 0.00522096 0 0 Z " fill="#143C70" transform="translate(623.35546875,276.99609375)"/>
<path d="M0 0 C2.34885769 2.87924492 3 4.27472933 3 8 C1.35 8 -0.3 8 -2 8 C-2.33 7.01 -2.66 6.02 -3 5 C-5.94389782 3.82244087 -6.89953913 3.96651304 -10 5 C-12.09933662 8.11330192 -12.3613817 11.05934376 -12.625 14.75 C-12.69976563 15.73484375 -12.77453125 16.7196875 -12.8515625 17.734375 C-12.90054688 18.48203125 -12.94953125 19.2296875 -13 20 C-9.71303767 20.79953138 -8.28976808 21.09658936 -5 20 C-3.78130071 17.49552484 -3.78130071 17.49552484 -3 15 C-4.65 15 -6.3 15 -8 15 C-7.67 13.68 -7.34 12.36 -7 11 C-4.03 11 -1.06 11 2 11 C1.21804023 20.22712524 1.21804023 20.22712524 -2 24 C-6.56739817 26.28369908 -10.08273952 26.20612049 -15 25 C-16.9999475 23.45943719 -17.87859328 22.58203808 -18.3984375 20.08984375 C-18.33410303 14.18179502 -17.59883909 8.37222708 -15 3 C-10.15809683 -1.2260055 -6.25830131 -1.59302215 0 0 Z " fill="#143B6F" transform="translate(743,277)"/>
<path d="M0 0 C2.457118 3.20525542 1.7445427 6.86007632 1.30859375 10.70703125 C-0.45261093 19.55134169 -0.45261093 19.55134169 -3.5546875 22.4453125 C-6.83648478 24.3831928 -9.91667549 24.72201034 -13.69140625 24.70703125 C-16.62890625 23.89453125 -16.62890625 23.89453125 -18.69140625 22.70703125 C-21.20337491 17.68309392 -20.0070373 10.95993855 -18.44140625 5.76953125 C-17.1648777 2.3714482 -16.07371147 0.34693681 -12.69140625 -1.29296875 C-8.64229866 -2.96846155 -3.51955293 -2.69046656 0 0 Z M-11.37890625 2.64453125 C-15.43426305 6.2614711 -15.52206841 10.87818261 -16.00390625 16.08203125 C-15.90078125 16.94828125 -15.79765625 17.81453125 -15.69140625 18.70703125 C-12.94298714 20.98374863 -12.94298714 20.98374863 -10.19140625 20.51953125 C-7.33922548 19.5925725 -6.36996686 19.18490643 -4.69140625 16.70703125 C-2.86045722 11.81005514 -2.40441939 7.85497869 -3.69140625 2.70703125 C-6.74545745 1.74718659 -8.32179922 1.57809856 -11.37890625 2.64453125 Z " fill="#133A6E" transform="translate(153.69140625,278.29296875)"/>
<path d="M0 0 C2.42635605 2.33812492 2.97135619 3.60159064 3.21484375 6.98828125 C2.22416231 18.8625053 2.22416231 18.8625053 -2 24 C-6.50507449 26.40270639 -10.09782676 26.20241985 -15 25 C-17.31806163 23.31120336 -17.92766145 22.4389957 -18.3984375 19.58203125 C-18.34063365 12.75154264 -18.17844392 6.17844392 -13.0625 1.0625 C-8.4713616 -1.3026319 -5.08468445 -1.20183451 0 0 Z M-12 6 C-13.88635075 10.67096375 -14.49174739 14.98417662 -14 20 C-11.25158089 22.27671738 -11.25158089 22.27671738 -8.5 21.8125 C-5.69678289 20.90145444 -4.80117219 20.29821698 -3 18 C-2.09210148 15.15320642 -2.09210148 15.15320642 -1.625 12 C-1.43164062 10.948125 -1.23828125 9.89625 -1.0390625 8.8125 C-0.73136664 6.01008678 -0.73136664 6.01008678 -2.2734375 4.125 C-6.0202045 1.68366766 -8.84932309 3.49561579 -12 6 Z " fill="#143B6F" transform="translate(434,277)"/>
<path d="M0 0 C2 2 2 2 2.125 5.125 C2.08375 6.07375 2.0425 7.0225 2 8 C0.68 8 -0.64 8 -2 8 C-2.66 6.68 -3.32 5.36 -4 4 C-5.98 4.33 -7.96 4.66 -10 5 C-10 6.32 -10 7.64 -10 9 C-9.36191406 9.20496094 -8.72382813 9.40992188 -8.06640625 9.62109375 C-7.24011719 9.89050781 -6.41382813 10.15992188 -5.5625 10.4375 C-4.73878906 10.70433594 -3.91507812 10.97117187 -3.06640625 11.24609375 C-1 12 -1 12 0 13 C0.57866184 20.0596745 0.57866184 20.0596745 -1.5 23.4375 C-4.87855922 25.54909951 -8.06839517 26.2259543 -12 26 C-15.5 24.5625 -15.5 24.5625 -18 23 C-18 21.02 -18 19.04 -18 17 C-16.68 17 -15.36 17 -14 17 C-13.67 17.99 -13.34 18.98 -13 20 C-9.71303767 20.79953138 -8.28976808 21.09658936 -5 20 C-5 18.68 -5 17.36 -5 16 C-5.62648438 15.81824219 -6.25296875 15.63648438 -6.8984375 15.44921875 C-7.71570313 15.19785156 -8.53296875 14.94648438 -9.375 14.6875 C-10.18710937 14.44386719 -10.99921875 14.20023437 -11.8359375 13.94921875 C-14 13 -14 13 -16 10 C-15.77877238 3.8056266 -15.77877238 3.8056266 -13.1875 1.125 C-8.49170684 -1.28997934 -5.22188765 -1.06371785 0 0 Z " fill="#133A6F" transform="translate(494,277)"/>
<path d="M0 0 C1.32 0 2.64 0 4 0 C3.67 3.3 3.34 6.6 3 10 C3.65226563 9.278125 4.30453125 8.55625 4.9765625 7.8125 C5.85054687 6.884375 6.72453125 5.95625 7.625 5 C8.91277344 3.6078125 8.91277344 3.6078125 10.2265625 2.1875 C13.46566512 -0.36728517 14.97948601 -0.47161454 19 0 C18.06409496 1.1055189 17.12620142 2.20935453 16.1875 3.3125 C15.66542969 3.92738281 15.14335938 4.54226563 14.60546875 5.17578125 C13.12827531 6.85424679 11.59960869 8.43882034 10 10 C10.19335938 10.58007812 10.38671875 11.16015625 10.5859375 11.7578125 C12.79296875 18.37890625 12.79296875 18.37890625 15 25 C13.35 25 11.7 25 10 25 C8.35 21.7 6.7 18.4 5 15 C2.08772731 18.28804981 0.50298788 20.59885603 0 25 C-1.65 25 -3.3 25 -5 25 C-4.36069083 21.01975618 -3.71246675 17.04101621 -3.0625 13.0625 C-2.88009766 11.92619141 -2.69769531 10.78988281 -2.50976562 9.61914062 C-2.33251953 8.53955078 -2.15527344 7.45996094 -1.97265625 6.34765625 C-1.81031494 5.34742432 -1.64797363 4.34719238 -1.48071289 3.31665039 C-1 1 -1 1 0 0 Z " fill="#143A6F" transform="translate(669,277)"/>
<path d="M0 0 C1.32 0 2.64 0 4 0 C4 2.97 4 5.94 4 9 C4.66386719 8.3503125 5.32773437 7.700625 6.01171875 7.03125 C6.89472656 6.1959375 7.77773438 5.360625 8.6875 4.5 C9.55761719 3.6646875 10.42773438 2.829375 11.32421875 1.96875 C14.2493575 -0.18346888 15.46633206 -0.45842179 19 0 C17.61811547 3.21043882 16.07578097 5.04936365 13.375 7.25 C12.74335938 7.77078125 12.11171875 8.2915625 11.4609375 8.828125 C10.97882813 9.21484375 10.49671875 9.6015625 10 10 C10.3609375 10.91523438 10.721875 11.83046875 11.09375 12.7734375 C11.5578125 13.96195312 12.021875 15.15046875 12.5 16.375 C12.9640625 17.55835938 13.428125 18.74171875 13.90625 19.9609375 C15 23 15 23 15 25 C13.35 25 11.7 25 10 25 C8.35 21.7 6.7 18.4 5 15 C1.65094547 18.34905453 1.10529715 20.49378854 0 25 C-1.32 25 -2.64 25 -4 25 C-3.55046968 16.39691968 -2.13898002 8.34067679 0 0 Z " fill="#133A6E" transform="translate(321,277)"/>
<path d="M0 0 C1.32 0 2.64 0 4 0 C3.67 3.3 3.34 6.6 3 10 C3.54269531 9.44570313 4.08539063 8.89140625 4.64453125 8.3203125 C5.35996094 7.59585937 6.07539062 6.87140625 6.8125 6.125 C7.52019531 5.40570313 8.22789063 4.68640625 8.95703125 3.9453125 C11.50792041 1.51635877 13.09495409 0.04209516 16.6875 -0.125 C17.450625 -0.08375 18.21375 -0.0425 19 0 C17.84906278 3.45281166 16.6794007 4.38082163 13.9375 6.6875 C13.20402344 7.31011719 12.47054687 7.93273437 11.71484375 8.57421875 C10.86599609 9.27998047 10.86599609 9.27998047 10 10 C10.3609375 10.91523438 10.721875 11.83046875 11.09375 12.7734375 C11.5578125 13.96195312 12.021875 15.15046875 12.5 16.375 C12.9640625 17.55835938 13.428125 18.74171875 13.90625 19.9609375 C15 23 15 23 15 25 C13.35 25 11.7 25 10 25 C8.35 21.7 6.7 18.4 5 15 C2.08772731 18.28804981 0.50298788 20.59885603 0 25 C-1.65 25 -3.3 25 -5 25 C-4.36069083 21.01975618 -3.71246675 17.04101621 -3.0625 13.0625 C-2.88009766 11.92619141 -2.69769531 10.78988281 -2.50976562 9.61914062 C-2.33251953 8.53955078 -2.15527344 7.45996094 -1.97265625 6.34765625 C-1.81031494 5.34742432 -1.64797363 4.34719238 -1.48071289 3.31665039 C-1 1 -1 1 0 0 Z " fill="#143A6E" transform="translate(109,277)"/>
<path d="M0 0 C1.32 0 2.64 0 4 0 C3.34 3.3 2.68 6.6 2 10 C5.63 10 9.26 10 13 10 C13.33 7.03 13.66 4.06 14 1 C15.65 0.67 17.3 0.34 19 0 C17.85111339 8.37220563 16.5922517 16.69996456 15 25 C13.35 25 11.7 25 10 25 C10.66 21.37 11.32 17.74 12 14 C8.37 14 4.74 14 1 14 C0.67 17.63 0.34 21.26 0 25 C-1.65 25 -3.3 25 -5 25 C-4.36069083 21.01975618 -3.71246675 17.04101621 -3.0625 13.0625 C-2.88009766 11.92619141 -2.69769531 10.78988281 -2.50976562 9.61914062 C-2.33251953 8.53955078 -2.15527344 7.45996094 -1.97265625 6.34765625 C-1.81031494 5.34742432 -1.64797363 4.34719238 -1.48071289 3.31665039 C-1 1 -1 1 0 0 Z " fill="#143C70" transform="translate(826,277)"/>
<path d="M0 0 C1.32 0 2.64 0 4 0 C3.67 3.3 3.34 6.6 3 10 C6.3 9.67 9.6 9.34 13 9 C13.66 6.03 14.32 3.06 15 0 C16.32 0 17.64 0 19 0 C18.49451662 8.54092606 16.93265709 16.67377292 15 25 C13.68 25 12.36 25 11 25 C11.33 21.7 11.66 18.4 12 15 C8.7 14.67 5.4 14.34 2 14 C1.34 17.63 0.68 21.26 0 25 C-1.32 25 -2.64 25 -4 25 C-3.49451662 16.45907394 -1.93265709 8.32622708 0 0 Z " fill="#143C71" transform="translate(589,277)"/>
<path d="M0 0 C1.58206057 0.00667536 3.16410534 0.0186375 4.74609375 0.03515625 C5.55240234 0.03966797 6.35871094 0.04417969 7.18945312 0.04882812 C9.18753131 0.06065107 11.18557158 0.07858711 13.18359375 0.09765625 C12.85359375 1.41765625 12.52359375 2.73765625 12.18359375 4.09765625 C7.89359375 4.09765625 3.60359375 4.09765625 -0.81640625 4.09765625 C-0.81640625 5.74765625 -0.81640625 7.39765625 -0.81640625 9.09765625 C2.48359375 9.42765625 5.78359375 9.75765625 9.18359375 10.09765625 C9.18359375 11.41765625 9.18359375 12.73765625 9.18359375 14.09765625 C3.73859375 14.59265625 3.73859375 14.59265625 -1.81640625 15.09765625 C-2.14640625 16.74765625 -2.47640625 18.39765625 -2.81640625 20.09765625 C1.14359375 20.42765625 5.10359375 20.75765625 9.18359375 21.09765625 C9.18359375 22.41765625 9.18359375 23.73765625 9.18359375 25.09765625 C3.24359375 25.09765625 -2.69640625 25.09765625 -8.81640625 25.09765625 C-8.17543144 21.11764986 -7.52887657 17.13869428 -6.87890625 13.16015625 C-6.69650391 12.02384766 -6.51410156 10.88753906 -6.32617188 9.71679688 C-6.14892578 8.63720703 -5.97167969 7.55761719 -5.7890625 6.4453125 C-5.62672119 5.44508057 -5.46437988 4.44484863 -5.29711914 3.41430664 C-4.49891288 -0.43240701 -4.22938765 0.10822384 0 0 Z " fill="#143C71" transform="translate(536.81640625,276.90234375)"/>
<path d="M0 0 C5.61 0 11.22 0 17 0 C17 1.32 17 2.64 17 4 C12.71 4 8.42 4 4 4 C3.67 5.98 3.34 7.96 3 10 C6.63 10 10.26 10 14 10 C13.67 11.32 13.34 12.64 13 14 C9.37 14 5.74 14 2 14 C1.67 16.31 1.34 18.62 1 21 C5.29 21 9.58 21 14 21 C13.67 22.32 13.34 23.64 13 25 C7.39 25 1.78 25 -4 25 C-2.92802403 16.57733167 -1.78857278 8.30408793 0 0 Z " fill="#143C71" transform="translate(28,277)"/>
<path d="M0 0 C5.61 0 11.22 0 17 0 C17 1.32 17 2.64 17 4 C12.71 4 8.42 4 4 4 C3.67 5.98 3.34 7.96 3 10 C6.3 10 9.6 10 13 10 C13 11.32 13 12.64 13 14 C9.37 14 5.74 14 2 14 C1.67 16.31 1.34 18.62 1 21 C5.29 21 9.58 21 14 21 C13.67 22.32 13.34 23.64 13 25 C7.39 25 1.78 25 -4 25 C-2 8 -2 8 0 0 Z " fill="#143D71" transform="translate(81,277)"/>
<path d="M0 0 C1.65 0 3.3 0 5 0 C4.01 6.93 3.02 13.86 2 21 C7.53941232 21.56550881 7.53941232 21.56550881 9.80200195 19.7644043 C11.17562111 17.74134629 11.67594124 16.16180294 12.16796875 13.76953125 C12.33876953 12.96708984 12.50957031 12.16464844 12.68554688 11.33789062 C12.85119141 10.50451172 13.01683594 9.67113281 13.1875 8.8125 C13.36474609 7.96751953 13.54199219 7.12253906 13.72460938 6.25195312 C14.15980979 4.17004843 14.58124454 2.08527467 15 0 C16.32 0 17.64 0 19 0 C18.74256727 2.52284073 18.46948683 5.04238144 18.1875 7.5625 C18.11724609 8.26697266 18.04699219 8.97144531 17.97460938 9.69726562 C17.31387235 15.43246299 16.2333558 20.89801807 11.875 25 C7.86135102 26.39605182 4.04286384 26.38547581 0 25 C-2.07838371 22.93525994 -2.95030083 21.75354681 -3.14453125 18.80859375 C-3.03496094 18.02613281 -2.92539063 17.24367188 -2.8125 16.4375 C-2.63847656 15.14005859 -2.63847656 15.14005859 -2.4609375 13.81640625 C-1.70504429 9.1977706 -0.89938045 4.59295261 0 0 Z " fill="#143B6F" transform="translate(242,277)"/>
<path d="M0 0 C1.65 0 3.3 0 5 0 C5.67684298 3.03949302 6.33961872 6.08189165 7 9.125 C7.19078125 9.9809375 7.3815625 10.836875 7.578125 11.71875 C8.54920333 16.22732794 9.24359575 20.35645604 9 25 C7.68 25 6.36 25 5 25 C4.67 23.02 4.34 21.04 4 19 C0.92645242 19.07087846 -2.01346528 19.24134538 -5 20 C-6.77148372 22.47933197 -6.77148372 22.47933197 -8 25 C-10.578125 25.15234375 -10.578125 25.15234375 -13 25 C-4.42553191 7.65957447 -4.42553191 7.65957447 0 0 Z M1 7 C-0.32 9.64 -1.64 12.28 -3 15 C-1.02 15 0.96 15 3 15 C2.67 12.36 2.34 9.72 2 7 C1.67 7 1.34 7 1 7 Z " fill="#143B70" transform="translate(355,277)"/>
<path d="M0 0 C1.09570312 0.00902344 2.19140625 0.01804687 3.3203125 0.02734375 C4.16335938 0.03894531 5.00640625 0.05054687 5.875 0.0625 C5.47836417 2.98318205 5.05870405 5.89729341 4.625 8.8125 C4.51542969 9.6375 4.40585937 10.4625 4.29296875 11.3125 C3.71971951 15.0537056 3.27308049 17.51324971 1.0234375 20.6171875 C-2.5389667 23.01371396 -4.90611293 22.47077939 -9.125 22.0625 C-9.785 21.4025 -10.445 20.7425 -11.125 20.0625 C-11.125 18.7425 -11.125 17.4225 -11.125 16.0625 C-10.465 15.7325 -9.805 15.4025 -9.125 15.0625 C-9.455 14.7325 -9.785 14.4025 -10.125 14.0625 C-10.29296875 12.13671875 -10.29296875 12.13671875 -10.3125 9.75 C-10.32667969 8.97011719 -10.34085938 8.19023438 -10.35546875 7.38671875 C-10.10097257 4.82018944 -9.49348466 3.23767036 -8.125 1.0625 C-5.36047967 -0.31976016 -3.0788637 -0.03275387 0 0 Z M-4.125 4.0625 C-5.55444945 6.41688733 -6.21161261 7.54282433 -5.75 10.3125 C-5.54375 10.89 -5.3375 11.4675 -5.125 12.0625 C-3.09258273 11.42270151 -3.09258273 11.42270151 -1.125 10.0625 C-0.31328772 7.50730079 -0.31328772 7.50730079 -0.125 5.0625 C-1.445 4.7325 -2.765 4.4025 -4.125 4.0625 Z M-3.125 15.0625 C-4.445 15.3925 -5.765 15.7225 -7.125 16.0625 C-7.125 16.7225 -7.125 17.3825 -7.125 18.0625 C-5.475 17.7325 -3.825 17.4025 -2.125 17.0625 C-2.455 16.4025 -2.785 15.7425 -3.125 15.0625 Z " fill="#143B70" transform="translate(801.125,93.9375)"/>
<path d="M0 0 C1.09570312 0.00902344 2.19140625 0.01804688 3.3203125 0.02734375 C4.16335938 0.03894531 5.00640625 0.05054688 5.875 0.0625 C5.47836417 2.98318205 5.05870405 5.89729341 4.625 8.8125 C4.51542969 9.6375 4.40585937 10.4625 4.29296875 11.3125 C3.71971951 15.0537056 3.27308049 17.51324971 1.0234375 20.6171875 C-2.5389667 23.01371396 -4.90611293 22.47077939 -9.125 22.0625 C-9.785 21.4025 -10.445 20.7425 -11.125 20.0625 C-11.125 18.7425 -11.125 17.4225 -11.125 16.0625 C-10.465 15.7325 -9.805 15.4025 -9.125 15.0625 C-9.455 14.7325 -9.785 14.4025 -10.125 14.0625 C-10.29296875 12.13671875 -10.29296875 12.13671875 -10.3125 9.75 C-10.32667969 8.97011719 -10.34085938 8.19023438 -10.35546875 7.38671875 C-10.10097257 4.82018944 -9.49348466 3.23767036 -8.125 1.0625 C-5.36047967 -0.31976016 -3.0788637 -0.03275387 0 0 Z M-4.125 4.0625 C-5.55444945 6.41688733 -6.21161261 7.54282433 -5.75 10.3125 C-5.54375 10.89 -5.3375 11.4675 -5.125 12.0625 C-3.09258273 11.42270151 -3.09258273 11.42270151 -1.125 10.0625 C-0.31328772 7.50730079 -0.31328772 7.50730079 -0.125 5.0625 C-1.445 4.7325 -2.765 4.4025 -4.125 4.0625 Z M-3.125 15.0625 C-4.445 15.3925 -5.765 15.7225 -7.125 16.0625 C-7.125 16.7225 -7.125 17.3825 -7.125 18.0625 C-5.475 17.7325 -3.825 17.4025 -2.125 17.0625 C-2.455 16.4025 -2.785 15.7425 -3.125 15.0625 Z " fill="#1F76B8" transform="translate(801.125,57.9375)"/>
<path d="M0 0 C1.53523259 2.61892619 1.2605568 4.84164805 1.0625 7.8125 C-0.2575 7.8125 -1.5775 7.8125 -2.9375 7.8125 C-3.2675 6.4925 -3.5975 5.1725 -3.9375 3.8125 C-6.23044488 2.95275199 -6.23044488 2.95275199 -8.9375 2.8125 C-11.22049761 4.52474821 -12.55993593 5.93151717 -13.6875 8.5625 C-14.06829042 11.98961381 -13.99495729 15.36506262 -13.9375 18.8125 C-10.92718256 19.74673645 -10.07099732 19.85699911 -6.9375 18.8125 C-5.72867904 16.81233534 -5.72867904 16.81233534 -4.9375 14.8125 C-3.6175 14.8125 -2.2975 14.8125 -0.9375 14.8125 C-1.41947343 20.23470114 -1.41947343 20.23470114 -3.5625 22.625 C-7.64298639 24.6652432 -11.30935613 25.21049072 -15.75 24.125 C-18.35335546 22.56298673 -18.86204155 21.61461192 -19.9375 18.8125 C-20.17721513 11.99774128 -18.68953383 5.40210935 -14.5 -0.0625 C-10.18211046 -3.17138047 -4.47407402 -2.7421744 0 0 Z " fill="#143B70" transform="translate(575.9375,278.1875)"/>
<path d="M0 0 C2 1.25 2 1.25 3 3 C3 4.32 3 5.64 3 7 C1.35 7 -0.3 7 -2 7 C-2.33 6.34 -2.66 5.68 -3 5 C-4.65 5 -6.3 5 -8 5 C-8.33 8.63 -8.66 12.26 -9 16 C-7.35 16.33 -5.7 16.66 -4 17 C-3.67 15.68 -3.34 14.36 -3 13 C-3.99 13 -4.98 13 -6 13 C-6 11.68 -6 10.36 -6 9 C-3.03 9 -0.06 9 3 9 C1.2134613 18.48239772 1.2134613 18.48239772 -2 21 C-6.32200938 22.22143743 -9.05038618 22.1942299 -13 20 C-15.90898451 15.63652323 -14.98310936 12.00346715 -14 7 C-10.97254613 0.3946461 -6.83568538 -0.92566573 0 0 Z " fill="#38B6C9" transform="translate(741,17)"/>
<path d="M0 0 C0.99 0.66 1.98 1.32 3 2 C3.1875 4.625 3.1875 4.625 3 7 C1.68 7 0.36 7 -1 7 C-1.33 6.34 -1.66 5.68 -2 5 C-3.65 5 -5.3 5 -7 5 C-7 5.99 -7 6.98 -7 8 C-5.88625 8.12375 -4.7725 8.2475 -3.625 8.375 C0 9 0 9 2 11 C2.5483871 17.03225806 2.5483871 17.03225806 0.9375 19.875 C-2.87805632 22.09048432 -6.62475818 22.29896561 -10.875 21.375 C-13 20 -13 20 -13.8125 17.375 C-13.874375 16.59125 -13.93625 15.8075 -14 15 C-12.35 14.67 -10.7 14.34 -9 14 C-9 14.99 -9 15.98 -9 17 C-7.02 17 -5.04 17 -3 17 C-3.33 16.01 -3.66 15.02 -4 14 C-5.155 13.54625 -6.31 13.0925 -7.5 12.625 C-11 11 -11 11 -12.125 8.625 C-11.96716542 5.31047387 -10.97551219 3.63401625 -9 1 C-5.98131566 -0.50934217 -3.32702771 -0.17510672 0 0 Z " fill="#1E75BA" transform="translate(685,53)"/>
<path d="M0 0 C4.62 0 9.24 0 14 0 C14 5.65828075 12.70234908 7.06512236 9 10.8125 C8.52304687 11.31458984 8.04609375 11.81667969 7.5546875 12.33398438 C6.380799 13.5665673 5.19183114 14.78475789 4 16 C6.64 16.33 9.28 16.66 12 17 C11.67 18.32 11.34 19.64 11 21 C5.72 21 0.44 21 -5 21 C-3.157283 16.39320751 -1.51040484 13.90519431 1.625 10.1875 C2.44226563 9.21167969 3.25953125 8.23585938 4.1015625 7.23046875 C4.72804688 6.49441406 5.35453125 5.75835937 6 5 C3.69 5 1.38 5 -1 5 C-0.67 3.35 -0.34 1.7 0 0 Z " fill="#133A6E" transform="translate(641,89)"/>
<path d="M0 0 C1.32 0 2.64 0 4 0 C4 2.97 4 5.94 4 9 C4.556875 8.505 5.11375 8.01 5.6875 7.5 C8.38162983 5.75245633 9.85375007 5.73781251 13 6 C11.70700306 8.88437779 10.34058637 10.87219421 8 13 C8.309375 13.928125 8.61875 14.85625 8.9375 15.8125 C9.625 17.875 10.3125 19.9375 11 22 C9.02 22 7.04 22 5 22 C4.67 20.35 4.34 18.7 4 17 C3.34 17.33 2.68 17.66 2 18 C1.34786708 20.02463255 1.34786708 20.02463255 1 22 C-0.65 22 -2.3 22 -4 22 C-2.38297872 2.38297872 -2.38297872 2.38297872 0 0 Z " fill="#133A6E" transform="translate(813,88)"/>
<path d="M0 0 C1.32 0 2.64 0 4 0 C4 2.97 4 5.94 4 9 C4.556875 8.505 5.11375 8.01 5.6875 7.5 C8.38162983 5.75245633 9.85375007 5.73781251 13 6 C11.63016497 9.16115776 11.0109362 9.9927092 8 12 C8.60990891 15.55780196 9.5783681 18.6828589 11 22 C9.02 22 7.04 22 5 22 C4.67 20.35 4.34 18.7 4 17 C3.34 17.33 2.68 17.66 2 18 C1.34786708 20.02463255 1.34786708 20.02463255 1 22 C-0.65 22 -2.3 22 -4 22 C-2.38297872 2.38297872 -2.38297872 2.38297872 0 0 Z " fill="#1E75B8" transform="translate(813,52)"/>
<path d="M0 0 C1.32 0 2.64 0 4 0 C4 1.65 4 3.3 4 5 C6.31 5.66 8.62 6.32 11 7 C11.18451025 17.55808656 11.18451025 17.55808656 10 22 C8.35 22 6.7 22 5 22 C5.66 18.04 6.32 14.08 7 10 C2.8686365 11.48397601 2.8686365 11.48397601 2.171875 14.3828125 C2.03265625 15.28773437 1.8934375 16.19265625 1.75 17.125 C1.60046875 18.03507812 1.4509375 18.94515625 1.296875 19.8828125 C1.19890625 20.58148438 1.1009375 21.28015625 1 22 C-0.65 22 -2.3 22 -4 22 C-2.38297872 2.38297872 -2.38297872 2.38297872 0 0 Z " fill="#1F77BB" transform="translate(711,52)"/>
<path d="M0 0 C1.051875 -0.02126953 1.051875 -0.02126953 2.125 -0.04296875 C4 0.1875 4 0.1875 6 2.1875 C6.01171875 4.9375 6.01171875 4.9375 5.6875 8.1875 C5.58824219 9.26 5.48898437 10.3325 5.38671875 11.4375 C5 14.1875 5 14.1875 4 16.1875 C1.8203125 16.671875 1.8203125 16.671875 -0.875 16.9375 C-1.75929688 17.03546875 -2.64359375 17.1334375 -3.5546875 17.234375 C-6 17.1875 -6 17.1875 -9 15.1875 C-9.43132515 11.13304358 -9.30019361 9.63779042 -7 6.1875 C-6.835 5.32125 -6.67 4.455 -6.5 3.5625 C-6.335 2.77875 -6.17 1.995 -6 1.1875 C-3.77109005 0.07304502 -2.46944894 0.02269714 0 0 Z M-2 4.1875 C-2.33 4.8475 -2.66 5.5075 -3 6.1875 C-1.68 6.1875 -0.36 6.1875 1 6.1875 C1 5.5275 1 4.8675 1 4.1875 C0.01 4.1875 -0.98 4.1875 -2 4.1875 Z M-4 10.1875 C-4 11.1775 -4 12.1675 -4 13.1875 C-2.68 12.8575 -1.36 12.5275 0 12.1875 C0 11.5275 0 10.8675 0 10.1875 C-1.32 10.1875 -2.64 10.1875 -4 10.1875 Z " fill="#143B70" transform="translate(739,93.8125)"/>
<path d="M0 0 C2 2 2 2 2.1953125 3.9453125 C2.13020833 5.96354167 2.06510417 7.98177083 2 10 C-1.3 10 -4.6 10 -8 10 C-7.67 10.66 -7.34 11.32 -7 12 C-4.36 11.67 -1.72 11.34 1 11 C0.8125 12.875 0.8125 12.875 0 15 C-2.97572727 16.78543636 -4.71684945 17.02220789 -8.1875 16.75 C-11 16 -11 16 -13 14 C-13.23679118 9.4693955 -12.76709501 5.28871962 -10.4375 1.375 C-6.75955816 -0.69973642 -4.19536724 -0.40600328 0 0 Z M-7 4 C-7 4.66 -7 5.32 -7 6 C-5.35 6 -3.7 6 -2 6 C-2.33 5.34 -2.66 4.68 -3 4 C-4.32 4 -5.64 4 -7 4 Z " fill="#1F76BA" transform="translate(757,58)"/>
<path d="M0 0 C1.20849609 -0.00386719 1.20849609 -0.00386719 2.44140625 -0.0078125 C4.4375 0.125 4.4375 0.125 5.4375 1.125 C5.9232159 6.4904663 5.49899392 11.10010856 3.4375 16.125 C2.00109829 16.32073608 0.56330496 16.50627816 -0.875 16.6875 C-1.67550781 16.79191406 -2.47601562 16.89632812 -3.30078125 17.00390625 C-5.5625 17.125 -5.5625 17.125 -8.5625 16.125 C-9.52062094 11.90926785 -9.72782592 9.85417243 -7.5625 6.125 C-7.3975 5.238125 -7.2325 4.35125 -7.0625 3.4375 C-6.8975 2.674375 -6.7325 1.91125 -6.5625 1.125 C-4.1828388 -0.0648306 -2.64764265 -0.00849966 0 0 Z M-2.5625 4.125 C-2.8925 4.785 -3.2225 5.445 -3.5625 6.125 C-1.9125 6.125 -0.2625 6.125 1.4375 6.125 C1.4375 5.465 1.4375 4.805 1.4375 4.125 C0.1175 4.125 -1.2025 4.125 -2.5625 4.125 Z M-4.5625 10.125 C-4.2325 11.115 -3.9025 12.105 -3.5625 13.125 C-2.2425 12.465 -0.9225 11.805 0.4375 11.125 C0.4375 10.465 0.4375 9.805 0.4375 9.125 C-1.77331851 9.01959074 -1.77331851 9.01959074 -4.5625 10.125 Z " fill="#37B5C8" transform="translate(764.5625,21.875)"/>
<path d="M0 0 C2 1.0625 2 1.0625 3 3 C2.6875 6.6875 2.6875 6.6875 2 10 C-1.3 10 -4.6 10 -8 10 C-7.67 10.66 -7.34 11.32 -7 12 C-2.545 11.505 -2.545 11.505 2 11 C0.9375 13.4375 0.9375 13.4375 -1 16 C-5.5195524 17.2326052 -7.97222716 17.27502774 -12 15 C-12.56540084 5.38818565 -12.56540084 5.38818565 -9 1 C-5.95016004 -0.52491998 -3.3576631 -0.23562548 0 0 Z M-6 4 C-6.33 4.66 -6.66 5.32 -7 6 C-5.35 6 -3.7 6 -2 6 C-2 5.34 -2 4.68 -2 4 C-3.32 4 -4.64 4 -6 4 Z " fill="#143C70" transform="translate(703,94)"/>
<path d="M0 0 C1.051875 -0.00386719 1.051875 -0.00386719 2.125 -0.0078125 C4 0.125 4 0.125 6 1.125 C6.19392201 6.65177733 5.7479503 10.88114911 4 16.125 C2.56359829 16.32073608 1.12580496 16.50627816 -0.3125 16.6875 C-1.11300781 16.79191406 -1.91351562 16.89632812 -2.73828125 17.00390625 C-5 17.125 -5 17.125 -8 16.125 C-8.95812094 11.90926785 -9.16532592 9.85417243 -7 6.125 C-6.835 5.238125 -6.67 4.35125 -6.5 3.4375 C-6.335 2.674375 -6.17 1.91125 -6 1.125 C-3.75487738 0.00243869 -2.48543351 -0.00913762 0 0 Z M-2 4.125 C-2.33 4.785 -2.66 5.445 -3 6.125 C-1.35 6.125 0.3 6.125 2 6.125 C2 5.465 2 4.805 2 4.125 C0.68 4.125 -0.64 4.125 -2 4.125 Z M-4 10.125 C-4 11.115 -4 12.105 -4 13.125 C-2.35 12.465 -0.7 11.805 1 11.125 C1 10.465 1 9.805 1 9.125 C-1.21081851 9.01959074 -1.21081851 9.01959074 -4 10.125 Z " fill="#38B6C8" transform="translate(810,21.875)"/>
<path d="M0 0 C2 1.0625 2 1.0625 3 3 C2.6875 6.6875 2.6875 6.6875 2 10 C-1.3 10 -4.6 10 -8 10 C-7.67 10.66 -7.34 11.32 -7 12 C-2.545 11.505 -2.545 11.505 2 11 C0.9375 13.4375 0.9375 13.4375 -1 16 C-4.89335307 16.97333827 -7.17853346 17.27382218 -11 16 C-12.59453633 12.81092735 -12.38561702 9.47055318 -12 6 C-9.15515282 -0.07762806 -6.55111759 -0.45972755 0 0 Z M-6 4 C-6.33 4.66 -6.66 5.32 -7 6 C-5.35 6 -3.7 6 -2 6 C-2 5.34 -2 4.68 -2 4 C-3.32 4 -4.64 4 -6 4 Z " fill="#143C71" transform="translate(839,94)"/>
<path d="M0 0 C2.54960259 0.05035122 3.89903688 0.13359476 6.1875 1.3125 C7.67738061 4.3915866 6.79982518 6.99856958 6.125 10.25 C2.825 10.25 -0.475 10.25 -3.875 10.25 C-3.545 10.91 -3.215 11.57 -2.875 12.25 C1.58 11.755 1.58 11.755 6.125 11.25 C5 13.6875 5 13.6875 3.125 16.25 C-0.38440358 17.47066212 -2.22024045 17.46350855 -5.75 16.3125 C-7.875 14.25 -7.875 14.25 -8.375 10.375 C-8.01575262 4.4637477 -6.05708694 0.3907798 0 0 Z M-1.875 4.25 C-2.205 4.91 -2.535 5.57 -2.875 6.25 C-1.225 6.25 0.425 6.25 2.125 6.25 C2.125 5.59 2.125 4.93 2.125 4.25 C0.805 4.25 -0.515 4.25 -1.875 4.25 Z " fill="#1F77BB" transform="translate(834.875,57.75)"/>
<path d="M0 0 C0.80308594 -0.02578125 1.60617187 -0.0515625 2.43359375 -0.078125 C3.48740234 0.08429687 3.48740234 0.08429687 4.5625 0.25 C7.12937367 4.1003105 6.39538724 5.83569763 5.5625 10.25 C2.2625 10.25 -1.0375 10.25 -4.4375 10.25 C-4.4375 10.91 -4.4375 11.57 -4.4375 12.25 C-1.1375 11.92 2.1625 11.59 5.5625 11.25 C3.2609127 15.97431078 3.2609127 15.97431078 0.1875 17.1875 C-2.85726312 17.25999436 -4.72932915 16.60408543 -7.4375 15.25 C-8.4375 14.25 -8.4375 14.25 -8.6875 10.5 C-8.63073965 4.17689666 -6.38807559 0.12265105 0 0 Z M-2 4.75 C-2.474375 5.245 -2.94875 5.74 -3.4375 6.25 C-1.7875 6.25 -0.1375 6.25 1.5625 6.25 C1.2325 5.26 0.9025 4.27 0.5625 3.25 C-0.67826302 3.13457803 -0.67826302 3.13457803 -2 4.75 Z " fill="#38B7CA" transform="translate(844.4375,21.75)"/>
<path d="M0 0 C1.65 0 3.3 0 5 0 C4.67 3.96 4.34 7.92 4 12 C7.16948699 10.34412478 7.16948699 10.34412478 7.73046875 7.6171875 C7.88128906 6.71226563 8.03210938 5.80734375 8.1875 4.875 C8.42533203 3.50988281 8.42533203 3.50988281 8.66796875 2.1171875 C8.77753906 1.41851562 8.88710938 0.71984375 9 0 C10.65 0 12.3 0 14 0 C13.52013969 5.56890517 12.70084819 10.67067568 11 16 C9.39884424 16.2493357 7.79379841 16.47378648 6.1875 16.6875 C5.29417969 16.81511719 4.40085937 16.94273438 3.48046875 17.07421875 C1 17 1 17 -0.83984375 15.828125 C-2.41205951 13.35069411 -2.1483047 11.94155028 -1.75 9.0625 C-1.64171875 8.20785156 -1.5334375 7.35320312 -1.421875 6.47265625 C-1.04706083 4.27582874 -0.57889638 2.15089949 0 0 Z " fill="#143B70" transform="translate(658,94)"/>
<path d="M0 0 C6.27 0 12.54 0 19 0 C19 1.32 19 2.64 19 4 C16.36 4 13.72 4 11 4 C10.86722656 5.09699219 10.73445312 6.19398438 10.59765625 7.32421875 C10.41937015 8.77865801 10.2409792 10.23308442 10.0625 11.6875 C9.93198242 12.7693457 9.93198242 12.7693457 9.79882812 13.87304688 C9.33686195 17.62010584 8.80832321 21.30792911 8 25 C6.35 25 4.7 25 3 25 C3.47373499 21.87415123 3.95490951 18.74949284 4.4375 15.625 C4.57220703 14.73554688 4.70691406 13.84609375 4.84570312 12.9296875 C4.97783203 12.07890625 5.10996094 11.228125 5.24609375 10.3515625 C5.36654053 9.56604004 5.4869873 8.78051758 5.61108398 7.97119141 C6 6 6 6 7 4 C4.69 4 2.38 4 0 4 C0 2.68 0 1.36 0 0 Z " fill="#143C71" transform="translate(0,277)"/>
<path d="M0 0 C0.66 0.33 1.32 0.66 2 1 C2 2.65 2 4.3 2 6 C1.01 6.495 1.01 6.495 0 7 C0.350625 7.763125 0.70125 8.52625 1.0625 9.3125 C2 12 2 12 1 15 C-2.23610857 17.27726159 -5.12611618 17.32969224 -9 17 C-9.99 16.34 -10.98 15.68 -12 15 C-12 13.68 -12 12.36 -12 11 C-9.36 11.33 -6.72 11.66 -4 12 C-4 11.67 -4 11.34 -4 11 C-5.98 10.34 -7.96 9.68 -10 9 C-10.75 6.75 -10.75 6.75 -11 4 C-8.06453171 -0.52551361 -5.1182267 -0.47390988 0 0 Z M-6 4 C-6 4.66 -6 5.32 -6 6 C-4.68 6 -3.36 6 -2 6 C-2 5.34 -2 4.68 -2 4 C-3.32 4 -4.64 4 -6 4 Z " fill="#143A6E" transform="translate(776,94)"/>
<path d="M0 0 C6.27 0 12.54 0 19 0 C18.67 1.32 18.34 2.64 18 4 C15.69 4 13.38 4 11 4 C10.87153687 4.84763916 10.87153687 4.84763916 10.74047852 5.71240234 C10.35130182 8.26714633 9.95696515 10.82106747 9.5625 13.375 C9.42779297 14.26445312 9.29308594 15.15390625 9.15429688 16.0703125 C9.02216797 16.92109375 8.89003906 17.771875 8.75390625 18.6484375 C8.63345947 19.43395996 8.5130127 20.21948242 8.38891602 21.02880859 C8 23 8 23 7 25 C5.68 25 4.36 25 3 25 C3.58476056 17.90593106 4.63233995 10.98436101 6 4 C3.69 4 1.38 4 -1 4 C-0.67 2.68 -0.34 1.36 0 0 Z " fill="#143B70" transform="translate(375,277)"/>
<path d="M0 0 C2 2 2 2 2 6 C0.68 6 -0.64 6 -2 6 C-2 5.34 -2 4.68 -2 4 C-3.32 4 -4.64 4 -6 4 C-6 4.66 -6 5.32 -6 6 C-5.030625 6.144375 -4.06125 6.28875 -3.0625 6.4375 C0 7 0 7 1 8 C1.3125 10.875 1.3125 10.875 1 14 C-1.218687 16.56002346 -2.65187593 16.94923191 -6 17.4375 C-9.65146525 16.90499465 -10.78728121 15.89355535 -13 13 C-13 12.34 -13 11.68 -13 11 C-11.35 11 -9.7 11 -8 11 C-8 11.66 -8 12.32 -8 13 C-6.68 12.67 -5.36 12.34 -4 12 C-5.4540625 11.2884375 -5.4540625 11.2884375 -6.9375 10.5625 C-10 9 -10 9 -11 8 C-11.28417861 5.30030316 -11.32477191 3.58864909 -10 1.1875 C-6.67642865 -0.78587049 -3.81941755 -0.30312838 0 0 Z " fill="#143C70" transform="translate(760,94)"/>
<path d="M0 0 C5.94 0 11.88 0 18 0 C18 1.32 18 2.64 18 4 C15.69 4.33 13.38 4.66 11 5 C9.68 11.6 8.36 18.2 7 25 C5.68 25 4.36 25 3 25 C3.51537952 17.86606248 4.44005901 10.98187183 6 4 C3.69 4 1.38 4 -1 4 C-0.67 2.68 -0.34 1.36 0 0 Z " fill="#143C70" transform="translate(505,277)"/>
<path d="M0 0 C8.3984375 -0.1953125 8.3984375 -0.1953125 11 0 C13 2 13 2 13.01171875 4.49609375 C12.90472656 5.46675781 12.79773438 6.43742187 12.6875 7.4375 C12.58824219 8.40558594 12.48898437 9.37367187 12.38671875 10.37109375 C12 13 12 13 11 16 C9.35 16 7.7 16 6 16 C6.66 12.04 7.32 8.08 8 4 C7.01 4.33 6.02 4.66 5 5 C3.96961044 7.56042066 3.96961044 7.56042066 3.3125 10.5625 C3.06113281 11.57441406 2.80976562 12.58632812 2.55078125 13.62890625 C2.36902344 14.41136719 2.18726563 15.19382812 2 16 C0.35 16 -1.3 16 -3 16 C-2.01 10.72 -1.02 5.44 0 0 Z " fill="#1F76B9" transform="translate(728,58)"/>
<path d="M0 0 C2 2 2 2 2.125 4.625 C2.08375 5.40875 2.0425 6.1925 2 7 C0.35 7 -1.3 7 -3 7 C-3 6.01 -3 5.02 -3 4 C-3.99 4.33 -4.98 4.66 -6 5 C-6.33 7.31 -6.66 9.62 -7 12 C-6.34 12 -5.68 12 -5 12 C-4.67 11.34 -4.34 10.68 -4 10 C-2.35 10 -0.7 10 1 10 C0.64267506 12.59060578 0.1383604 13.84567494 -1.625 15.8125 C-5.04480803 17.52240401 -7.35554522 16.87736874 -11 16 C-13 14 -13 14 -13.1171875 11.7578125 C-12.47732697 4.80190931 -12.47732697 4.80190931 -10.4375 1.375 C-6.75955816 -0.69973642 -4.19536724 -0.40600328 0 0 Z " fill="#1E73B6" transform="translate(703,58)"/>
<path d="M0 0 C1.21236328 0.04060547 1.21236328 0.04060547 2.44921875 0.08203125 C3.06410156 0.11683594 3.67898438 0.15164062 4.3125 0.1875 C4.6425 1.8375 4.9725 3.4875 5.3125 5.1875 C3.0025 4.8575 0.6925 4.5275 -1.6875 4.1875 C-2.0175 4.8475 -2.3475 5.5075 -2.6875 6.1875 C-1.90375 6.14625 -1.12 6.105 -0.3125 6.0625 C2.3125 6.1875 2.3125 6.1875 4.3125 8.1875 C4.5625 11.1875 4.5625 11.1875 4.3125 14.1875 C1.67923543 16.82076457 -0.01303101 16.89930635 -3.6875 17.1875 C-6.5625 16.25 -6.5625 16.25 -8.6875 15.1875 C-8.6875 13.8675 -8.6875 12.5475 -8.6875 11.1875 C-6.0475 11.5175 -3.4075 11.8475 -0.6875 12.1875 C-1.5846875 11.754375 -1.5846875 11.754375 -2.5 11.3125 C-4.6875 10.1875 -4.6875 10.1875 -7.6875 8.1875 C-8.0625 5.75 -8.0625 5.75 -7.6875 3.1875 C-5.3944118 0.11548977 -3.74352951 -0.16276215 0 0 Z " fill="#38B8CA" transform="translate(781.6875,21.8125)"/>
<path d="M0 0 C1.21236328 0.04060547 1.21236328 0.04060547 2.44921875 0.08203125 C3.06410156 0.11683594 3.67898438 0.15164062 4.3125 0.1875 C4.6425 1.8375 4.9725 3.4875 5.3125 5.1875 C3.0025 4.8575 0.6925 4.5275 -1.6875 4.1875 C-2.0175 4.8475 -2.3475 5.5075 -2.6875 6.1875 C-1.90375 6.14625 -1.12 6.105 -0.3125 6.0625 C2.3125 6.1875 2.3125 6.1875 4.3125 8.1875 C4.5625 11.1875 4.5625 11.1875 4.3125 14.1875 C1.67923543 16.82076457 -0.01303101 16.89930635 -3.6875 17.1875 C-6.5625 16.25 -6.5625 16.25 -8.6875 15.1875 C-8.6875 13.8675 -8.6875 12.5475 -8.6875 11.1875 C-6.0475 11.5175 -3.4075 11.8475 -0.6875 12.1875 C-1.5846875 11.754375 -1.5846875 11.754375 -2.5 11.3125 C-4.6875 10.1875 -4.6875 10.1875 -7.6875 8.1875 C-8.0625 5.75 -8.0625 5.75 -7.6875 3.1875 C-5.3944118 0.11548977 -3.74352951 -0.16276215 0 0 Z " fill="#39B7CA" transform="translate(827.6875,21.8125)"/>
<path d="M0 0 C1.32 0 2.64 0 4 0 C3.68981396 2.5627992 3.37693109 5.1252211 3.0625 7.6875 C2.97548828 8.40873047 2.88847656 9.12996094 2.79882812 9.87304688 C2.71181641 10.57880859 2.62480469 11.28457031 2.53515625 12.01171875 C2.456604 12.65584717 2.37805176 13.29997559 2.29711914 13.96362305 C1.95278287 16.3236139 1.46773284 18.66133579 1 21 C4.63 21 8.26 21 12 21 C12 22.32 12 23.64 12 25 C6.72 25 1.44 25 -4 25 C-2.40625 4.8125 -2.40625 4.8125 0 0 Z " fill="#143C70" transform="translate(56,277)"/>
<path d="M0 0 C1.134375 0.020625 2.26875 0.04125 3.4375 0.0625 C3.4375 1.3825 3.4375 2.7025 3.4375 4.0625 C2.1175 4.0625 0.7975 4.0625 -0.5625 4.0625 C-0.5625 4.7225 -0.5625 5.3825 -0.5625 6.0625 C0.4275 6.0625 1.4175 6.0625 2.4375 6.0625 C2.4375 7.3825 2.4375 8.7025 2.4375 10.0625 C1.1175 10.0625 -0.2025 10.0625 -1.5625 10.0625 C-2.2225 14.0225 -2.8825 17.9825 -3.5625 22.0625 C-5.2125 22.0625 -6.8625 22.0625 -8.5625 22.0625 C-7.9025 18.1025 -7.2425 14.1425 -6.5625 10.0625 C-7.2225 10.0625 -7.8825 10.0625 -8.5625 10.0625 C-8.5625 8.7425 -8.5625 7.4225 -8.5625 6.0625 C-7.5725 6.0625 -6.5825 6.0625 -5.5625 6.0625 C-5.418125 5.258125 -5.27375 4.45375 -5.125 3.625 C-4.26443625 -0.29534596 -4.23242358 0.07425305 0 0 Z " fill="#37B7C9" transform="translate(798.5625,15.9375)"/>
<path d="M0 0 C1.65 0 3.3 0 5 0 C5.33 2.31 5.66 4.62 6 7 C7.32 4.69 8.64 2.38 10 0 C11.65 0 13.3 0 15 0 C13.35433477 5.68502535 10.70967216 10.76681636 8 16 C6.02 16 4.04 16 2 16 C1.34 10.72 0.68 5.44 0 0 Z " fill="#143B6F" transform="translate(675,94)"/>
<path d="M0 0 C1.32 0 2.64 0 4 0 C4 1.32 4 2.64 4 4 C4.99 4 5.98 4 7 4 C7 5.32 7 6.64 7 8 C5.68 8 4.36 8 3 8 C2.67 10.64 2.34 13.28 2 16 C2.99 16 3.98 16 5 16 C5 17.32 5 18.64 5 20 C2.66705225 20.04241723 0.33297433 20.04092937 -2 20 C-2.33 19.67 -2.66 19.34 -3 19 C-2.91015699 17.14227838 -2.75388139 15.28752015 -2.5625 13.4375 C-2.46066406 12.42558594 -2.35882812 11.41367188 -2.25390625 10.37109375 C-2.17011719 9.58863281 -2.08632813 8.80617188 -2 8 C-2.66 8 -3.32 8 -4 8 C-3.67 6.68 -3.34 5.36 -3 4 C-2.34 4 -1.68 4 -1 4 C-0.67 2.68 -0.34 1.36 0 0 Z " fill="#1F76BB" transform="translate(858,54)"/>
<path d="M0 0 C1.32 0 2.64 0 4 0 C4 1.32 4 2.64 4 4 C4.99 4 5.98 4 7 4 C7 5.32 7 6.64 7 8 C5.68 8 4.36 8 3 8 C2.67 10.97 2.34 13.94 2 17 C2.99 17 3.98 17 5 17 C5 17.99 5 18.98 5 20 C2.66705225 20.04241723 0.33297433 20.04092937 -2 20 C-2.33 19.67 -2.66 19.34 -3 19 C-2.91015699 17.14227838 -2.75388139 15.28752015 -2.5625 13.4375 C-2.46066406 12.42558594 -2.35882812 11.41367188 -2.25390625 10.37109375 C-2.17011719 9.58863281 -2.08632813 8.80617188 -2 8 C-2.66 8 -3.32 8 -4 8 C-3.67 6.68 -3.34 5.36 -3 4 C-2.34 4 -1.68 4 -1 4 C-0.67 2.68 -0.34 1.36 0 0 Z " fill="#143B70" transform="translate(858,90)"/>
<path d="M0 0 C1.65 0 3.3 0 5 0 C3.68 7.92 2.36 15.84 1 24 C-0.65 24.33 -2.3 24.66 -4 25 C-3.24595285 16.55467195 -1.62171958 8.31258777 0 0 Z " fill="#143A6C" transform="translate(304,277)"/>
<path d="M0 0 C1.32 0 2.64 0 4 0 C3.42029353 8.49569832 1.76198299 16.68875949 0 25 C-1.32 25 -2.64 25 -4 25 C-2.50462963 5.00925926 -2.50462963 5.00925926 0 0 Z " fill="#143B6E" transform="translate(403,277)"/>
<path d="M0 0 C1.32 0 2.64 0 4 0 C3.49451662 8.54092606 1.93265709 16.67377292 0 25 C-1.32 25 -2.64 25 -4 25 C-3.42029353 16.50430168 -1.76198299 8.31124051 0 0 Z " fill="#143B70" transform="translate(652,277)"/>
<path d="M0 0 C1.65 0 3.3 0 5 0 C4.41523944 7.09406894 3.36766005 14.01563899 2 21 C0.35 21.33 -1.3 21.66 -3 22 C-2.37727768 14.5928819 -1.29512034 7.31805865 0 0 Z " fill="#143B70" transform="translate(724,88)"/>
<path d="M0 0 C1.32 0 2.64 0 4 0 C3.45298368 7.44230094 2.45801591 14.68160944 1 22 C-0.65 22 -2.3 22 -4 22 C-2 2 -2 2 0 0 Z " fill="#39B6C9" transform="translate(750,16)"/>
<path d="M0 0 C1.32 0 2.64 0 4 0 C3.51172287 7.47834967 2.66594452 14.68925318 1 22 C-0.65 22 -2.3 22 -4 22 C-3.01701938 14.55444468 -2.02712214 7.23972193 0 0 Z " fill="#1F75BB" transform="translate(775,52)"/>
<path d="M0 0 C1.65 0 3.3 0 5 0 C4.01701938 7.44555532 3.02712214 14.76027807 1 22 C-0.32 22 -1.64 22 -3 22 C-2.45298368 14.55769906 -1.45801591 7.31839056 0 0 Z " fill="#1F77BA" transform="translate(765,52)"/>
<path d="M0 0 C2.97 0 5.94 0 9 0 C9 1.32 9 2.64 9 4 C8.21625 4.391875 7.4325 4.78375 6.625 5.1875 C3.51879587 7.33225999 3.45073137 8.12203961 2.6875 11.6875 C2.43818335 13.12164254 2.2024751 14.5584982 2 16 C0.35 16 -1.3 16 -3 16 C-2.01 10.72 -1.02 5.44 0 0 Z " fill="#143C70" transform="translate(711,94)"/>
<path d="M0 0 C2.97 0 5.94 0 9 0 C9 1.32 9 2.64 9 4 C7.35 4.33 5.7 4.66 4 5 C3.34 8.63 2.68 12.26 2 16 C0.35 16 -1.3 16 -3 16 C-2.01 10.72 -1.02 5.44 0 0 Z " fill="#38B7CA" transform="translate(856,22)"/>
<path d="M0 0 C1.65 0 3.3 0 5 0 C4.69177379 2.2922454 4.37829126 4.58378455 4.0625 6.875 C3.88847656 8.15117188 3.71445312 9.42734375 3.53515625 10.7421875 C3 14 3 14 2 16 C0.68 16 -0.64 16 -2 16 C-1.85764543 14.27054347 -1.71095618 12.54144346 -1.5625 10.8125 C-1.48128906 9.84957031 -1.40007813 8.88664062 -1.31640625 7.89453125 C-1.02333849 5.21350398 -0.57296246 2.6337014 0 0 Z " fill="#143C71" transform="translate(783,94)"/>
<path d="M0 0 C1.65 0 3.3 0 5 0 C4.69177379 2.2922454 4.37829126 4.58378455 4.0625 6.875 C3.88847656 8.15117188 3.71445312 9.42734375 3.53515625 10.7421875 C3 14 3 14 2 16 C0.68 16 -0.64 16 -2 16 C-1.85764543 14.27054347 -1.71095618 12.54144346 -1.5625 10.8125 C-1.48128906 9.84957031 -1.40007813 8.88664062 -1.31640625 7.89453125 C-1.02333849 5.21350398 -0.57296246 2.6337014 0 0 Z " fill="#2077BA" transform="translate(783,58)"/>
<path d="M0 0 C1.32 0 2.64 0 4 0 C3.85833643 1.91697937 3.71150416 3.83357723 3.5625 5.75 C3.48128906 6.81734375 3.40007813 7.8846875 3.31640625 8.984375 C3.05909227 11.43679962 2.68187782 13.63921291 2 16 C0.35 16 -1.3 16 -3 16 C-2.01 10.72 -1.02 5.44 0 0 Z " fill="#143C70" transform="translate(847,94)"/>
<path d="M0 0 C1.32 0 2.64 0 4 0 C3.85833643 1.91697937 3.71150416 3.83357723 3.5625 5.75 C3.48128906 6.81734375 3.40007813 7.8846875 3.31640625 8.984375 C3.05909227 11.43679962 2.68187782 13.63921291 2 16 C0.35 16 -1.3 16 -3 16 C-2.01 10.72 -1.02 5.44 0 0 Z " fill="#1F77BC" transform="translate(847,58)"/>
<path d="M0 0 C-7.92 2.31 -15.84 4.62 -24 7 C-23.67 6.01 -23.34 5.02 -23 4 C-20.5357077 3.13794359 -18.21653073 2.46644779 -15.6875 1.875 C-15.01009766 1.70613281 -14.33269531 1.53726563 -13.63476562 1.36328125 C-11.7592654 0.89761453 -9.87974349 0.44823099 -8 0 C-6.89591797 -0.33644531 -6.89591797 -0.33644531 -5.76953125 -0.6796875 C-4 -1 -4 -1 0 0 Z " fill="#113462" transform="translate(658,50)"/>
<path d="M0 0 C1.65 0 3.3 0 5 0 C4.67 1.65 4.34 3.3 4 5 C2.35 5 0.7 5 -1 5 C-0.67 3.35 -0.34 1.7 0 0 Z " fill="#113465" transform="translate(848,88)"/>
<path d="M0 0 C1.65 0 3.3 0 5 0 C4.67 1.65 4.34 3.3 4 5 C2.68 5 1.36 5 0 5 C0 3.35 0 1.7 0 0 Z " fill="#12386D" transform="translate(784,88)"/>
<path d="M0 0 C1.32 0 2.64 0 4 0 C4 1.65 4 3.3 4 5 C2.35 5 0.7 5 -1 5 C-0.67 3.35 -0.34 1.7 0 0 Z " fill="#113669" transform="translate(741,88)"/>
<path d="M0 0 C1.65 0 3.3 0 5 0 C4.67 1.65 4.34 3.3 4 5 C2.35 5 0.7 5 -1 5 C-0.67 3.35 -0.34 1.7 0 0 Z " fill="#1C73B8" transform="translate(848,52)"/>
<path d="M0 0 C1.65 0 3.3 0 5 0 C4.67 1.65 4.34 3.3 4 5 C2.68 5 1.36 5 0 5 C0 3.35 0 1.7 0 0 Z " fill="#1E73B9" transform="translate(784,52)"/>
<path d="M0 0 C1.32 0 2.64 0 4 0 C4 1.65 4 3.3 4 5 C2.35 5 0.7 5 -1 5 C-0.67 3.35 -0.34 1.7 0 0 Z " fill="#11386A" transform="translate(735,88)"/>
</svg>
